<svg xmlns="http://www.w3.org/2000/svg" width="10.047" height="17.523" viewBox="0 0 10.047 17.523">
  <g id="Grupo_34" data-name="Grupo 34" transform="translate(-1830.852 633.294)">
    <path id="Trazado_32" data-name="Trazado 32" d="M1830.852-624.548q0-3.543,0-7.085a1.574,1.574,0,0,1,1.143-1.591,1.979,1.979,0,0,1,.525-.066q3.363-.007,6.725,0a1.58,1.58,0,0,1,1.652,1.659q0,7.1,0,14.2a1.58,1.58,0,0,1-1.653,1.658q-3.37,0-6.74,0a1.579,1.579,0,0,1-1.652-1.658Q1830.851-620.99,1830.852-624.548Zm1.294-.786q0,2.954,0,5.908a.592.592,0,0,0,.666.665h6.127a.593.593,0,0,0,.664-.667q0-5.908,0-11.816a.591.591,0,0,0-.666-.665h-6.112a.6.6,0,0,0-.679.683Q1832.146-628.281,1832.146-625.334Zm4.426,8.155a.7.7,0,0,0-.687-.707.7.7,0,0,0-.708.686.7.7,0,0,0,.695.717A.7.7,0,0,0,1836.572-617.179Z" fill="#fff"/>
  </g>
</svg>
