<svg id="Grupo_3" data-name="Grupo 3" xmlns="http://www.w3.org/2000/svg" width="22.37" height="29.551" viewBox="0 0 22.37 29.551">
  <path id="Trazado_9" data-name="Trazado 9" d="M55.623,55.511q-4.8,0-9.593,0A1.6,1.6,0,0,1,45,55.225,1.347,1.347,0,0,1,44.444,54c.164-1.848.344-3.7.518-5.543q.241-2.561.482-5.122.27-2.869.54-5.738c.158-1.689.322-3.377.47-5.067.065-.733.259-.928,1.005-.929.544,0,1.088-.007,1.632,0,.186,0,.259-.054.289-.244a6.318,6.318,0,0,1,12.49-.047c.032.226.106.3.332.292.59-.014,1.181-.008,1.772,0a.713.713,0,0,1,.811.738c.179,1.885.349,3.77.525,5.655q.268,2.87.54,5.738t.529,5.711c.138,1.484.27,2.968.42,4.451a1.406,1.406,0,0,1-1.33,1.615c-.121.008-.244.006-.365.006ZM62,33a.634.634,0,0,0-.033.117c0,1.3,0,2.607-.008,3.91,0,.165.087.191.216.231A.694.694,0,0,1,62.66,38a.67.67,0,0,1-.628.616c-.524.021-1.05.021-1.574,0a.689.689,0,0,1-.151-1.333c.218-.056.25-.16.249-.352-.007-1.2,0-2.4,0-3.6,0-.1-.01-.2-.015-.3H50.726c-.008.066-.018.111-.018.156,0,1.275,0,2.551,0,3.826,0,.169.073.213.22.257a.688.688,0,0,1,.482.738.672.672,0,0,1-.631.613c-.515.021-1.031.021-1.546,0a.691.691,0,0,1-.145-1.348c.2-.05.218-.151.217-.316,0-1.219,0-2.438,0-3.657,0-.09-.01-.179-.017-.289-.451,0-.872-.008-1.293.008a.26.26,0,0,0-.172.181c-.1,1.007-.2,2.015-.29,3.023q-.236,2.534-.472,5.067-.271,2.9-.543,5.795-.239,2.547-.48,5.095c-.059.631-.115,1.262-.174,1.9H65.4c-.021-.25-.038-.473-.059-.7q-.268-2.855-.537-5.711t-.529-5.683q-.271-2.9-.543-5.795c-.094-1-.19-2-.278-3-.013-.142-.064-.2-.206-.2C62.834,33.007,62.423,33,62,33Zm-1.5-1.427A4.813,4.813,0,0,0,58.01,28a4.919,4.919,0,0,0-7.245,3.573Z" transform="translate(-44.438 -25.962)" fill="#fff"/>
</svg>
