<svg id="Grupo_11" data-name="Grupo 11" xmlns="http://www.w3.org/2000/svg" width="47.703" height="34.075" viewBox="0 0 47.703 34.075">
  <path id="Trazado_17" data-name="Trazado 17" d="M-877.566-567.406h-.4q-7.608,0-15.216-.008a.492.492,0,0,0-.581.435,5.649,5.649,0,0,1-5.512,4.116,5.692,5.692,0,0,1-5.421-4.189l-.1-.353h-2.119a2.3,2.3,0,0,1-2.521-2.5q0-12.263,0-24.527a2.294,2.294,0,0,1,2.514-2.5H-882.4a2.29,2.29,0,0,1,2.489,2.483c0,.665,0,1.33,0,2.06h8.9a3.264,3.264,0,0,1,2.969,1.679q2.737,4.549,5.464,9.1a5.757,5.757,0,0,1,.837,3.021q0,4.36,0,8.721a2.273,2.273,0,0,1-2.459,2.462c-.56,0-1.121.02-1.68-.007a.532.532,0,0,0-.651.469,5.642,5.642,0,0,1-5.034,4.072,5.688,5.688,0,0,1-5.585-3.364C-877.309-566.607-877.422-567-877.566-567.406Zm-4.644-2.271v-24.954h-24.918v24.941h2.327c.035-.12.07-.233.1-.347a5.686,5.686,0,0,1,5.47-4.182,5.651,5.651,0,0,1,5.477,4.161c.089.322.218.389.522.388q5.29-.015,10.581-.006Zm18.17,0v-6.816h-.529c-2.832,0-5.664.005-8.5,0a2.215,2.215,0,0,1-2.3-2.2q-.024-3.475,0-6.951a2.21,2.21,0,0,1,2.208-2.2c1.226-.017,2.453,0,3.68,0h.5c-.343-.575-.658-1.07-.94-1.583a1.245,1.245,0,0,0-1.216-.7c-2.771.016-5.542.007-8.314.008-.146,0-.292.013-.434.02v20.4h2.341c.043-.152.078-.282.116-.411a5.637,5.637,0,0,1,6.3-4.029,5.53,5.53,0,0,1,4.643,4.124c.063.2.092.358.366.35C-865.432-569.688-864.752-569.676-864.04-569.676Zm.143-9.1a11,11,0,0,0-.614-1.618c-.941-1.639-1.939-3.246-2.9-4.873a.571.571,0,0,0-.577-.314c-1.574.009-3.149,0-4.723,0-.116,0-.232.014-.358.021v6.787Zm-35.331,6.831a3.408,3.408,0,0,0-3.4,3.417,3.411,3.411,0,0,0,3.417,3.4,3.414,3.414,0,0,0,3.4-3.418A3.412,3.412,0,0,0-899.228-571.948ZM-872-565.135a3.414,3.414,0,0,0,3.446-3.368,3.412,3.412,0,0,0-3.369-3.445,3.409,3.409,0,0,0-3.444,3.367A3.411,3.411,0,0,0-872-565.135Z" transform="translate(909.438 596.936)" fill="red"/>
</svg>
