<svg xmlns="http://www.w3.org/2000/svg" width="24" height="14.858" viewBox="0 0 24 14.858">
  <g id="Grupo_33" data-name="Grupo 33" transform="translate(-880.592 358.5)">
    <path id="Trazado_31" data-name="Trazado 31" d="M892.6-358.5q5.348,0,10.7,0a1.257,1.257,0,0,1,.975.358,1.283,1.283,0,0,1,.318.947q0,5.359,0,10.718c0,.526,0,1.051,0,1.577a1.149,1.149,0,0,1-1.246,1.257q-10.753,0-21.505,0a1.147,1.147,0,0,1-1.245-1.257q0-6.159,0-12.318a1.156,1.156,0,0,1,1.291-1.28Zm-9.742,1.157,9.73,7.824,9.729-7.824Zm-.042,12.534h19.544l-6.919-5.536c-.078.062-.138.108-.2.155q-1.121.9-2.243,1.8a.6.6,0,0,1-.829,0c-.2-.159-.4-.325-.605-.487l-1.836-1.476Zm20.61-11.957-7.073,5.687,7.073,5.665Zm-14.6,5.687-7.066-5.682v11.337Z" transform="translate(0)" fill="#fff"/>
  </g>
</svg>
