<svg id="Grupo_4" data-name="Grupo 4" xmlns="http://www.w3.org/2000/svg" width="30.344" height="29.614" viewBox="0 0 30.344 29.614">
  <path id="Trazado_10" data-name="Trazado 10" d="M-103.794-122.618a8.265,8.265,0,0,1,6.34-8.994,7.582,7.582,0,0,1,1.549-.183c4.833-.014,9.666-.023,14.5,0a7.639,7.639,0,0,1,5.55,2.457,7.819,7.819,0,0,1,2.362,5.8c0,.3,0,.6,0,.925Z" transform="translate(103.836 152.232)" fill="#fff"/>
  <path id="Trazado_11" data-name="Trazado 11" d="M-44.985-271.57a7.258,7.258,0,0,1,3.222.461,6.949,6.949,0,0,1,4.4,5.76,9.547,9.547,0,0,1-.156,2.812c-.19,1.2-.329,2.418-.563,3.614a6.808,6.808,0,0,1-5.667,5.353,7.209,7.209,0,0,1-5.264-1.057A6.706,6.706,0,0,1-52-259.339c-.226-1.429-.425-2.861-.631-4.293a6.706,6.706,0,0,1,1.438-5.25,6.657,6.657,0,0,1,5.479-2.688C-45.473-271.571-45.229-271.57-44.985-271.57Z" transform="translate(60.179 271.582)" fill="#fff"/>
</svg>
