<svg xmlns="http://www.w3.org/2000/svg" width="28.396" height="28.371" viewBox="0 0 28.396 28.371">
  <path id="Trazado_12" data-name="Trazado 12" d="M152.653-248.1l-2.166,2.158-7.2-7.2a11.892,11.892,0,0,1-16.709-2.308,11.863,11.863,0,0,1,1.253-15.534,11.838,11.838,0,0,1,15.693-.675,11.863,11.863,0,0,1,1.91,16.345Zm-16.609-4.918a9.478,9.478,0,0,0,9.5-9.49,9.493,9.493,0,0,0-9.49-9.508,9.51,9.51,0,0,0-9.508,9.5A9.494,9.494,0,0,0,136.043-253.013Z" transform="translate(-124.257 274.308)" fill="#b8b8b8"/>
</svg>
