<svg id="Grupo_79" data-name="Grupo 79" xmlns="http://www.w3.org/2000/svg" width="67.57" height="66.591" viewBox="0 0 67.57 66.591">
  <path id="Trazado_53" data-name="Trazado 53" d="M351.5-63.031c-.715-.319-1.146-.468-1.534-.691q-3.259-1.88-6.5-3.792a6.226,6.226,0,0,0-6.8,0c-2.156,1.281-4.328,2.538-6.5,3.792-1.535.886-2.33.59-2.969-1.08-.909-2.377-1.806-4.758-2.717-7.133a6.392,6.392,0,0,0-5.149-4.322c-2.434-.418-4.87-.828-7.3-1.249-1.487-.257-1.994-1.092-1.522-2.529.83-2.525,1.654-5.053,2.525-7.565a6.321,6.321,0,0,0-1.244-6.592c-1.576-1.855-3.116-3.741-4.657-5.626-1.119-1.369-.984-2.085.529-3.012q3.307-2.024,6.618-4.041a6.127,6.127,0,0,0,3.124-5.582c0-2.472.069-4.945.135-7.417.045-1.679.714-2.221,2.407-1.984,2.56.359,5.117.734,7.675,1.105a6.119,6.119,0,0,0,5.848-2.067c1.732-1.973,3.485-3.926,5.242-5.877,1.123-1.246,2.019-1.24,3.143.013,1.651,1.841,3.3,3.683,4.93,5.543a6.594,6.594,0,0,0,6.529,2.325c2.432-.428,4.89-.7,7.336-1.057,1.546-.223,2.173.3,2.213,1.891.063,2.548.146,5.1.158,7.645a6.028,6.028,0,0,0,3.112,5.464q3.315,2.011,6.619,4.04c1.466.9,1.583,1.549.468,2.912-1.566,1.914-3.121,3.837-4.745,5.7a6.465,6.465,0,0,0-1.324,6.885c.862,2.434,1.648,4.894,2.461,7.345.492,1.481-.014,2.373-1.534,2.64-2.358.414-4.717.825-7.084,1.186a6.358,6.358,0,0,0-5.436,4.41c-.859,2.394-1.75,4.78-2.727,7.128A6.921,6.921,0,0,1,351.5-63.031ZM334.522-87.575c-.714-.793-1.3-1.44-1.882-2.09-1.647-1.842-3.265-3.711-4.949-5.518a2.215,2.215,0,0,0-3.822.826,2.381,2.381,0,0,0,.717,2.383q4.061,4.476,8.092,8.98c1.279,1.422,2.559,1.425,3.831-.021q6.287-7.151,12.563-14.312c2.256-2.572,4.525-5.132,6.755-7.726a2.116,2.116,0,0,0-.094-3.069,2.312,2.312,0,0,0-3.2-.048,5.947,5.947,0,0,0-.543.583q-5.735,6.573-11.468,13.147C338.553-92.184,336.582-89.931,334.522-87.575Z" transform="translate(-306.393 129.622)" fill="red"/>
  <path id="Trazado_54" data-name="Trazado 54" d="M393.189-17.271c2.059-2.356,4.031-4.609,6-6.864q5.735-6.573,11.469-13.147a5.948,5.948,0,0,1,.543-.583,2.312,2.312,0,0,1,3.2.048,2.116,2.116,0,0,1,.094,3.069c-2.23,2.594-4.5,5.155-6.755,7.727q-6.279,7.158-12.562,14.312c-1.272,1.446-2.552,1.442-3.831.021q-4.042-4.494-8.092-8.98a2.381,2.381,0,0,1-.717-2.383,2.215,2.215,0,0,1,3.822-.826c1.684,1.807,3.3,3.676,4.949,5.518C391.889-18.711,392.475-18.064,393.189-17.271Z" transform="translate(-365.06 59.318)" fill="#fff"/>
</svg>
