<svg xmlns="http://www.w3.org/2000/svg" width="46.339" height="45" viewBox="0 0 46.339 45">
  <g id="Grupo_344" data-name="Grupo 344" transform="translate(-689 -699)">
    <g id="Grupo_17" data-name="Grupo 17" transform="translate(323.684 2017.319)">
      <path id="Trazado_24" data-name="Trazado 24" d="M368.388-1201.068c-.49,0-.923.006-1.355,0a1.633,1.633,0,0,1-1.592-2.291q1.658-4.6,3.333-9.19a1.657,1.657,0,0,1,1.731-1.2q9.469,0,18.939,0c.119,0,.239.012.311.016.059.928.081,1.83.18,2.725a10.182,10.182,0,0,0,1.18,3.733c1.047,1.941,2.131,3.862,3.2,5.791.07.126.132.255.232.452h-3.8v20.844h9.819v-12.46a13.359,13.359,0,0,0,1.438.241,12.525,12.525,0,0,0,1.422-.069c0,.11.017.25.017.39q0,6.868,0,13.737c0,.793-.286,1.086-1.069,1.086H369.459c-.807,0-1.071-.267-1.071-1.073q0-11.075,0-22.149Zm19.436.076H371.276v12.233h16.547Z" transform="translate(0 -96.054)" fill="red"/>
      <path id="Trazado_25" data-name="Trazado 25" d="M705.071-1309.5a9.238,9.238,0,0,1,8.057-8.734,9.449,9.449,0,0,1,10.455,7.564,8.533,8.533,0,0,1-.938,5.926q-3.469,6.152-6.951,12.3a1.475,1.475,0,0,1-2.658.047q-3.418-5.995-6.8-12.008A9.785,9.785,0,0,1,705.071-1309.5Zm9.323-3.538a4.05,4.05,0,0,0-4.065,4.005,4.051,4.051,0,0,0,4.05,4.1,4.058,4.058,0,0,0,4.049-4.026A4.059,4.059,0,0,0,714.394-1313.036Z" transform="translate(-312.093)" fill="red"/>
      <path id="Trazado_26" data-name="Trazado 26" d="M472.533-1025.894a2.5,2.5,0,0,1-.248.489q-2.067,2.683-4.152,5.354a.848.848,0,0,1-1.208.229.855.855,0,0,1-.166-1.284c1.087-1.416,2.186-2.822,3.282-4.232.324-.416.638-.841.977-1.244a.776.776,0,0,1,.954-.226A.887.887,0,0,1,472.533-1025.894Z" transform="translate(-92.985 -267.709)" fill="red"/>
      <path id="Trazado_27" data-name="Trazado 27" d="M538.439-1025.882a3.475,3.475,0,0,1-.308.558q-2.03,2.636-4.077,5.258a.85.85,0,0,1-1.237.231.859.859,0,0,1-.137-1.289q1.92-2.49,3.856-4.967a5.892,5.892,0,0,1,.433-.536.781.781,0,0,1,.932-.173A.89.89,0,0,1,538.439-1025.882Z" transform="translate(-153.529 -267.709)" fill="red"/>
    </g>
  </g>
</svg>
