<svg xmlns="http://www.w3.org/2000/svg" width="12.019" height="17.402" viewBox="0 0 12.019 17.402">
  <g id="Grupo_35" data-name="Grupo 35" transform="translate(-1586.86 221.8)">
    <path id="Trazado_33" data-name="Trazado 33" d="M1593.274-221.8c.238.036.48.058.715.11a5.907,5.907,0,0,1,4.659,4.282,6.221,6.221,0,0,1,.026,3.263,15.845,15.845,0,0,1-1.594,4.024,28.236,28.236,0,0,1-3.9,5.519c-.245.271-.256.273-.5,0a30.036,30.036,0,0,1-4.368-6.215,13.516,13.516,0,0,1-1.311-3.574,6.055,6.055,0,0,1,.693-4.459,5.891,5.891,0,0,1,4.39-2.9l.371-.054Zm-.41,2.69a3.338,3.338,0,0,0-3.314,3.317,3.335,3.335,0,0,0,3.318,3.311,3.336,3.336,0,0,0,3.315-3.315A3.34,3.34,0,0,0,1592.864-219.109Z" transform="translate(0 0)" fill="#fff"/>
  </g>
</svg>
