<svg xmlns="http://www.w3.org/2000/svg" width="46.339" height="37.073" viewBox="0 0 46.339 37.073">
  <g id="Grupo_20" data-name="Grupo 20" transform="translate(-1734.269 -1457.955)">
    <path id="Trazado_46" data-name="Trazado 46" d="M1764.228,1529.969h40.546v.514q0,6.034,0,12.068a1.7,1.7,0,0,1-1.875,1.884H1785.11v8.728a3.6,3.6,0,0,1,2.488,1.86,3.268,3.268,0,0,1,.3,2.291,3.469,3.469,0,0,1-3.714,2.757,3.489,3.489,0,0,1-.295-6.911v-8.726h-17.739a1.709,1.709,0,0,1-1.926-1.929q0-5.986,0-11.972Zm20.275,28.372a1.739,1.739,0,1,0-1.741-1.748A1.745,1.745,0,0,0,1784.5,1558.341Z" transform="translate(-27.062 -65.051)" fill="red"/>
    <path id="Trazado_47" data-name="Trazado 47" d="M1757.493,1457.955h21.184a1.709,1.709,0,0,1,1.931,1.922c0,.676,0,1.351,0,2.027a1.689,1.689,0,0,1-1.822,1.839q-2.63,0-5.26,0h-37.252c-1.38,0-2-.621-2-2q0-.941,0-1.882a1.7,1.7,0,0,1,1.895-1.91Z" transform="translate(0 0)" fill="red"/>
  </g>
</svg>
