<svg xmlns="http://www.w3.org/2000/svg" width="48.012" height="39.244" viewBox="0 0 48.012 39.244">
  <g id="Grupo_12" data-name="Grupo 12" transform="translate(0 0)">
    <path id="Trazado_18" data-name="Trazado 18" d="M-173.075-616.653c5.222,0,10.445.048,15.666-.02a4.807,4.807,0,0,1,4.884,4.9c-.05,6.115-.015,12.23-.016,18.345a4.648,4.648,0,0,1-4.851,4.858H-188.77a4.623,4.623,0,0,1-4.837-4.817q0-9.263,0-18.527a4.611,4.611,0,0,1,3.914-4.686,6,6,0,0,1,1-.051Q-180.886-616.656-173.075-616.653Zm18.354,14.532h-34.124a4.347,4.347,0,0,1-.544-.012,1.078,1.078,0,0,1-.974-1.161,1.057,1.057,0,0,1,1.079-1.006c.136-.005.272,0,.409,0h34.129v-3.512h-36.68v.477q0,6.971,0,13.943a2.424,2.424,0,0,0,2.658,2.644h31.383a2.443,2.443,0,0,0,2.664-2.647q0-4.11,0-8.22Zm0-7.924c0-.572-.033-1.1.006-1.627a2.574,2.574,0,0,0-2.784-2.82c-10.383.041-20.767.02-31.15.02-.151,0-.3,0-.454,0a2.249,2.249,0,0,0-2.216,1.8,21.64,21.64,0,0,0-.145,2.623Z" transform="translate(200.537 627.814)" fill="red"/>
    <path id="Trazado_19" data-name="Trazado 19" d="M-269.753-726.3a4.661,4.661,0,0,1,3.548-4.466q10.858-2.914,21.72-5.812c2.963-.792,5.925-1.591,8.891-2.372a4.567,4.567,0,0,1,5.671,3.221c.461,1.613.889,3.235,1.321,4.855a1.108,1.108,0,0,1-.728,1.452,1.112,1.112,0,0,1-1.389-.9c-.413-1.532-.815-3.067-1.222-4.6a2.443,2.443,0,0,0-3.241-1.9l-30.343,8.135a2.419,2.419,0,0,0-1.872,3.278q1.684,6.26,3.369,12.519c.251.935-.23,1.658-1.066,1.6a1.09,1.09,0,0,1-1.017-.939q-1.312-4.858-2.618-9.717c-.3-1.124-.609-2.246-.893-3.374A8.3,8.3,0,0,1-269.753-726.3Z" transform="translate(269.753 739.12)" fill="red"/>
    <path id="Trazado_20" data-name="Trazado 20" d="M88.948-404.622c0-.3-.007-.605,0-.908a1.077,1.077,0,0,1,1.041-1.1,1.081,1.081,0,0,1,1.13,1.059c.024.65.024,1.3,0,1.952a1.089,1.089,0,0,1-1.09,1.06,1.093,1.093,0,0,1-1.08-1.111C88.941-403.986,88.948-404.3,88.948-404.622Z" transform="translate(-56.311 436.879)" fill="red"/>
    <path id="Trazado_21" data-name="Trazado 21" d="M42.918-404.6c0-.318-.009-.636,0-.953a1.069,1.069,0,0,1,1.009-1.081,1.049,1.049,0,0,1,1.141.94,15.419,15.419,0,0,1,0,2.176,1.056,1.056,0,0,1-1.134.952,1.083,1.083,0,0,1-1.014-1.081C42.908-403.961,42.918-404.279,42.918-404.6Z" transform="translate(-14.467 436.883)" fill="red"/>
    <path id="Trazado_22" data-name="Trazado 22" d="M183.471-404.617c0,.348.018.7,0,1.044a1.071,1.071,0,0,1-1,1,1,1,0,0,1-1.1-.811,14.3,14.3,0,0,1,0-2.438,1,1,0,0,1,1.136-.818,1.06,1.06,0,0,1,.97,1.023c.017.332,0,.666,0,1Z" transform="translate(-140.276 436.893)" fill="red"/>
    <path id="Trazado_23" data-name="Trazado 23" d="M137.065-404.606c0,.333.014.667,0,1a1.1,1.1,0,0,1-1.095,1.054,1.089,1.089,0,0,1-1.076-1.072c-.017-.65-.019-1.3,0-1.952a1.074,1.074,0,0,1,1.092-1.048,1.086,1.086,0,0,1,1.078,1.066C137.078-405.242,137.066-404.924,137.065-404.606Z" transform="translate(-98.064 436.876)" fill="red"/>
  </g>
</svg>
