<svg xmlns="http://www.w3.org/2000/svg" width="179" height="152.307" viewBox="0 0 179 152.307">
  <g id="Grupo_127" data-name="Grupo 127" transform="translate(-55.471 -354.31)">
    <circle id="Elipse_232" data-name="Elipse 232" cx="3.998" cy="3.998" r="3.998" transform="translate(55.471 354.31)" fill="#fff"/>
    <circle id="Elipse_233" data-name="Elipse 233" cx="3.998" cy="3.998" r="3.998" transform="translate(76.846 354.31)" fill="#fff"/>
    <circle id="Elipse_234" data-name="Elipse 234" cx="3.998" cy="3.998" r="3.998" transform="translate(98.221 354.31)" fill="#fff"/>
    <circle id="Elipse_235" data-name="Elipse 235" cx="3.998" cy="3.998" r="3.998" transform="translate(119.597 354.31)" fill="#fff"/>
    <circle id="Elipse_236" data-name="Elipse 236" cx="3.998" cy="3.998" r="3.998" transform="translate(140.972 354.31)" fill="#fff"/>
    <circle id="Elipse_237" data-name="Elipse 237" cx="3.998" cy="3.998" r="3.998" transform="translate(162.348 354.31)" fill="#fff"/>
    <circle id="Elipse_238" data-name="Elipse 238" cx="3.998" cy="3.998" r="3.998" transform="translate(183.723 354.31)" fill="#fff"/>
    <circle id="Elipse_239" data-name="Elipse 239" cx="3.998" cy="3.998" r="3.998" transform="translate(205.098 354.31)" fill="#fff"/>
    <circle id="Elipse_240" data-name="Elipse 240" cx="3.998" cy="3.998" r="3.998" transform="translate(226.474 354.31)" fill="#fff"/>
    <circle id="Elipse_241" data-name="Elipse 241" cx="3.998" cy="3.998" r="3.998" transform="translate(55.471 374.926)" fill="#fff"/>
    <circle id="Elipse_242" data-name="Elipse 242" cx="3.998" cy="3.998" r="3.998" transform="translate(76.846 374.926)" fill="#fff"/>
    <circle id="Elipse_243" data-name="Elipse 243" cx="3.998" cy="3.998" r="3.998" transform="translate(98.221 374.926)" fill="#fff"/>
    <circle id="Elipse_244" data-name="Elipse 244" cx="3.998" cy="3.998" r="3.998" transform="translate(119.597 374.926)" fill="#fff"/>
    <circle id="Elipse_245" data-name="Elipse 245" cx="3.998" cy="3.998" r="3.998" transform="translate(140.972 374.926)" fill="#fff"/>
    <circle id="Elipse_246" data-name="Elipse 246" cx="3.998" cy="3.998" r="3.998" transform="translate(162.348 374.926)" fill="#fff"/>
    <circle id="Elipse_247" data-name="Elipse 247" cx="3.998" cy="3.998" r="3.998" transform="translate(183.723 374.926)" fill="#fff"/>
    <circle id="Elipse_248" data-name="Elipse 248" cx="3.998" cy="3.998" r="3.998" transform="translate(205.098 374.926)" fill="#fff"/>
    <circle id="Elipse_249" data-name="Elipse 249" cx="3.998" cy="3.998" r="3.998" transform="translate(226.474 374.926)" fill="#fff"/>
    <path id="Trazado_214" data-name="Trazado 214" d="M63.466,376.375a4,4,0,1,1-4-4A4,4,0,0,1,63.466,376.375Z" transform="translate(0 23.166)" fill="#fff"/>
    <path id="Trazado_215" data-name="Trazado 215" d="M72.832,376.375a4,4,0,1,1-4-4A4,4,0,0,1,72.832,376.375Z" transform="translate(12.01 23.166)" fill="#fff"/>
    <path id="Trazado_216" data-name="Trazado 216" d="M82.2,376.375a4,4,0,1,1-4-4A4,4,0,0,1,82.2,376.375Z" transform="translate(24.019 23.166)" fill="#fff"/>
    <path id="Trazado_217" data-name="Trazado 217" d="M91.565,376.375a4,4,0,1,1-4-4A4,4,0,0,1,91.565,376.375Z" transform="translate(36.029 23.166)" fill="#fff"/>
    <path id="Trazado_218" data-name="Trazado 218" d="M100.931,376.375a4,4,0,1,1-4-4A4,4,0,0,1,100.931,376.375Z" transform="translate(48.038 23.166)" fill="#fff"/>
    <path id="Trazado_219" data-name="Trazado 219" d="M110.295,376.375a4,4,0,1,1-4-4A4,4,0,0,1,110.295,376.375Z" transform="translate(60.048 23.166)" fill="#fff"/>
    <path id="Trazado_220" data-name="Trazado 220" d="M119.662,376.375a4,4,0,1,1-4-4A4,4,0,0,1,119.662,376.375Z" transform="translate(72.057 23.166)" fill="#fff"/>
    <path id="Trazado_221" data-name="Trazado 221" d="M129.028,376.375a4,4,0,1,1-4-4A4,4,0,0,1,129.028,376.375Z" transform="translate(84.067 23.166)" fill="#fff"/>
    <path id="Trazado_222" data-name="Trazado 222" d="M138.394,376.375a4,4,0,1,1-4-4A4,4,0,0,1,138.394,376.375Z" transform="translate(96.077 23.166)" fill="#fff"/>
    <circle id="Elipse_250" data-name="Elipse 250" cx="3.998" cy="3.998" r="3.998" transform="translate(55.471 416.158)" fill="#fff"/>
    <circle id="Elipse_251" data-name="Elipse 251" cx="3.998" cy="3.998" r="3.998" transform="translate(76.846 416.158)" fill="#fff"/>
    <circle id="Elipse_252" data-name="Elipse 252" cx="3.998" cy="3.998" r="3.998" transform="translate(98.221 416.158)" fill="#fff"/>
    <circle id="Elipse_253" data-name="Elipse 253" cx="3.998" cy="3.998" r="3.998" transform="translate(119.597 416.158)" fill="#fff"/>
    <circle id="Elipse_254" data-name="Elipse 254" cx="3.998" cy="3.998" r="3.998" transform="translate(140.972 416.158)" fill="#fff"/>
    <circle id="Elipse_255" data-name="Elipse 255" cx="3.998" cy="3.998" r="3.998" transform="translate(162.348 416.158)" fill="#fff"/>
    <circle id="Elipse_256" data-name="Elipse 256" cx="3.998" cy="3.998" r="3.998" transform="translate(183.723 416.158)" fill="#fff"/>
    <circle id="Elipse_257" data-name="Elipse 257" cx="3.998" cy="3.998" r="3.998" transform="translate(205.098 416.158)" fill="#fff"/>
    <circle id="Elipse_258" data-name="Elipse 258" cx="3.998" cy="3.998" r="3.998" transform="translate(226.474 416.158)" fill="#fff"/>
    <circle id="Elipse_259" data-name="Elipse 259" cx="3.998" cy="3.998" r="3.998" transform="translate(55.471 436.773)" fill="#fff"/>
    <circle id="Elipse_260" data-name="Elipse 260" cx="3.998" cy="3.998" r="3.998" transform="translate(76.846 436.773)" fill="#fff"/>
    <circle id="Elipse_261" data-name="Elipse 261" cx="3.998" cy="3.998" r="3.998" transform="translate(98.221 436.773)" fill="#fff"/>
    <circle id="Elipse_262" data-name="Elipse 262" cx="3.998" cy="3.998" r="3.998" transform="translate(119.597 436.773)" fill="#fff"/>
    <circle id="Elipse_263" data-name="Elipse 263" cx="3.998" cy="3.998" r="3.998" transform="translate(140.972 436.773)" fill="#fff"/>
    <circle id="Elipse_264" data-name="Elipse 264" cx="3.998" cy="3.998" r="3.998" transform="translate(162.348 436.773)" fill="#fff"/>
    <circle id="Elipse_265" data-name="Elipse 265" cx="3.998" cy="3.998" r="3.998" transform="translate(183.723 436.773)" fill="#fff"/>
    <circle id="Elipse_266" data-name="Elipse 266" cx="3.998" cy="3.998" r="3.998" transform="translate(205.098 436.773)" fill="#fff"/>
    <circle id="Elipse_267" data-name="Elipse 267" cx="3.998" cy="3.998" r="3.998" transform="translate(226.474 436.773)" fill="#fff"/>
    <path id="Trazado_223" data-name="Trazado 223" d="M63.466,403.474a4,4,0,1,1-4-4A4,4,0,0,1,63.466,403.474Z" transform="translate(0 57.914)" fill="#fff"/>
    <path id="Trazado_224" data-name="Trazado 224" d="M72.832,403.474a4,4,0,1,1-4-4A4,4,0,0,1,72.832,403.474Z" transform="translate(12.01 57.914)" fill="#fff"/>
    <path id="Trazado_225" data-name="Trazado 225" d="M82.2,403.474a4,4,0,1,1-4-4A4,4,0,0,1,82.2,403.474Z" transform="translate(24.019 57.914)" fill="#fff"/>
    <path id="Trazado_226" data-name="Trazado 226" d="M91.565,403.474a4,4,0,1,1-4-4A4,4,0,0,1,91.565,403.474Z" transform="translate(36.029 57.914)" fill="#fff"/>
    <path id="Trazado_227" data-name="Trazado 227" d="M100.931,403.474a4,4,0,1,1-4-4A4,4,0,0,1,100.931,403.474Z" transform="translate(48.038 57.914)" fill="#fff"/>
    <path id="Trazado_228" data-name="Trazado 228" d="M110.295,403.474a4,4,0,1,1-4-4A4,4,0,0,1,110.295,403.474Z" transform="translate(60.048 57.914)" fill="#fff"/>
    <path id="Trazado_229" data-name="Trazado 229" d="M119.662,403.474a4,4,0,1,1-4-4A4,4,0,0,1,119.662,403.474Z" transform="translate(72.057 57.914)" fill="#fff"/>
    <path id="Trazado_230" data-name="Trazado 230" d="M129.028,403.474a4,4,0,1,1-4-4A4,4,0,0,1,129.028,403.474Z" transform="translate(84.067 57.914)" fill="#fff"/>
    <path id="Trazado_231" data-name="Trazado 231" d="M138.394,403.474a4,4,0,1,1-4-4A4,4,0,0,1,138.394,403.474Z" transform="translate(96.077 57.914)" fill="#fff"/>
    <circle id="Elipse_268" data-name="Elipse 268" cx="3.998" cy="3.998" r="3.998" transform="translate(55.471 478.005)" fill="#fff"/>
    <circle id="Elipse_269" data-name="Elipse 269" cx="3.998" cy="3.998" r="3.998" transform="translate(76.846 478.005)" fill="#fff"/>
    <circle id="Elipse_270" data-name="Elipse 270" cx="3.998" cy="3.998" r="3.998" transform="translate(98.221 478.005)" fill="#fff"/>
    <circle id="Elipse_271" data-name="Elipse 271" cx="3.998" cy="3.998" r="3.998" transform="translate(119.597 478.005)" fill="#fff"/>
    <circle id="Elipse_272" data-name="Elipse 272" cx="3.998" cy="3.998" r="3.998" transform="translate(140.972 478.005)" fill="#fff"/>
    <circle id="Elipse_273" data-name="Elipse 273" cx="3.998" cy="3.998" r="3.998" transform="translate(162.348 478.005)" fill="#fff"/>
    <circle id="Elipse_274" data-name="Elipse 274" cx="3.998" cy="3.998" r="3.998" transform="translate(183.723 478.005)" fill="#fff"/>
    <circle id="Elipse_275" data-name="Elipse 275" cx="3.998" cy="3.998" r="3.998" transform="translate(205.098 478.005)" fill="#fff"/>
    <circle id="Elipse_276" data-name="Elipse 276" cx="3.998" cy="3.998" r="3.998" transform="translate(226.474 478.005)" fill="#fff"/>
    <circle id="Elipse_277" data-name="Elipse 277" cx="3.998" cy="3.998" r="3.998" transform="translate(55.471 498.621)" fill="#fff"/>
    <circle id="Elipse_278" data-name="Elipse 278" cx="3.998" cy="3.998" r="3.998" transform="translate(76.846 498.621)" fill="#fff"/>
    <circle id="Elipse_279" data-name="Elipse 279" cx="3.998" cy="3.998" r="3.998" transform="translate(98.221 498.621)" fill="#fff"/>
    <circle id="Elipse_280" data-name="Elipse 280" cx="3.998" cy="3.998" r="3.998" transform="translate(119.597 498.621)" fill="#fff"/>
    <circle id="Elipse_281" data-name="Elipse 281" cx="3.998" cy="3.998" r="3.998" transform="translate(140.972 498.621)" fill="#fff"/>
    <circle id="Elipse_282" data-name="Elipse 282" cx="3.998" cy="3.998" r="3.998" transform="translate(162.348 498.621)" fill="#fff"/>
    <circle id="Elipse_283" data-name="Elipse 283" cx="3.998" cy="3.998" r="3.998" transform="translate(183.723 498.621)" fill="#fff"/>
    <circle id="Elipse_284" data-name="Elipse 284" cx="3.998" cy="3.998" r="3.998" transform="translate(205.098 498.621)" fill="#fff"/>
    <circle id="Elipse_285" data-name="Elipse 285" cx="3.998" cy="3.998" r="3.998" transform="translate(226.474 498.621)" fill="#fff"/>
  </g>
</svg>
