<svg xmlns="http://www.w3.org/2000/svg" width="439" height="324.631" viewBox="0 0 439 324.631">
  <g id="Grupo_126" data-name="Grupo 126" transform="translate(-496.403 -142.123)">
    <path id="Trazado_56" data-name="Trazado 56" d="M504.087,145.963a3.842,3.842,0,1,1-3.842-3.84A3.842,3.842,0,0,1,504.087,145.963Z" transform="translate(0 0.001)" fill="#fff"/>
    <path id="Trazado_57" data-name="Trazado 57" d="M513.453,145.963a3.842,3.842,0,1,1-3.842-3.84A3.842,3.842,0,0,1,513.453,145.963Z" transform="translate(11.173 0.001)" fill="#fff"/>
    <circle id="Elipse_16" data-name="Elipse 16" cx="3.842" cy="3.842" r="3.842" transform="translate(537.481 142.122)" fill="#fff"/>
    <circle id="Elipse_17" data-name="Elipse 17" cx="3.842" cy="3.842" r="3.842" transform="translate(558.02 142.122)" fill="#fff"/>
    <circle id="Elipse_18" data-name="Elipse 18" cx="3.842" cy="3.842" r="3.842" transform="translate(578.559 142.122)" fill="#fff"/>
    <circle id="Elipse_19" data-name="Elipse 19" cx="3.842" cy="3.842" r="3.842" transform="translate(599.098 142.122)" fill="#fff"/>
    <circle id="Elipse_20" data-name="Elipse 20" cx="3.842" cy="3.842" r="3.842" transform="translate(619.637 142.122)" fill="#fff"/>
    <circle id="Elipse_21" data-name="Elipse 21" cx="3.842" cy="3.842" r="3.842" transform="translate(640.176 142.122)" fill="#fff"/>
    <circle id="Elipse_22" data-name="Elipse 22" cx="3.842" cy="3.842" r="3.842" transform="translate(660.715 142.122)" fill="#fff"/>
    <circle id="Elipse_23" data-name="Elipse 23" cx="3.842" cy="3.842" r="3.842" transform="translate(681.254 142.122)" fill="#fff"/>
    <circle id="Elipse_24" data-name="Elipse 24" cx="3.842" cy="3.842" r="3.842" transform="translate(701.793 142.122)" fill="#fff"/>
    <circle id="Elipse_25" data-name="Elipse 25" cx="3.842" cy="3.842" r="3.842" transform="translate(722.332 142.122)" fill="#fff"/>
    <circle id="Elipse_26" data-name="Elipse 26" cx="3.842" cy="3.842" r="3.842" transform="translate(742.871 142.122)" fill="#fff"/>
    <circle id="Elipse_27" data-name="Elipse 27" cx="3.842" cy="3.842" r="3.842" transform="translate(763.41 142.122)" fill="#fff"/>
    <circle id="Elipse_28" data-name="Elipse 28" cx="3.842" cy="3.842" r="3.842" transform="translate(783.949 142.122)" fill="#fff"/>
    <circle id="Elipse_29" data-name="Elipse 29" cx="3.842" cy="3.842" r="3.842" transform="translate(804.488 142.122)" fill="#fff"/>
    <circle id="Elipse_30" data-name="Elipse 30" cx="3.842" cy="3.842" r="3.842" transform="translate(825.027 142.122)" fill="#fff"/>
    <circle id="Elipse_31" data-name="Elipse 31" cx="3.842" cy="3.842" r="3.842" transform="translate(845.566 142.122)" fill="#fff"/>
    <circle id="Elipse_32" data-name="Elipse 32" cx="3.842" cy="3.842" r="3.842" transform="translate(866.104 142.122)" fill="#fff"/>
    <circle id="Elipse_33" data-name="Elipse 33" cx="3.842" cy="3.842" r="3.842" transform="translate(886.643 142.122)" fill="#fff"/>
    <path id="Trazado_58" data-name="Trazado 58" d="M691.4,145.963a3.842,3.842,0,1,1-3.842-3.84A3.842,3.842,0,0,1,691.4,145.963Z" transform="translate(223.463 0.001)" fill="#fff"/>
    <path id="Trazado_59" data-name="Trazado 59" d="M700.767,145.963a3.841,3.841,0,1,1-3.84-3.84A3.841,3.841,0,0,1,700.767,145.963Z" transform="translate(234.636 0.001)" fill="#fff"/>
    <path id="Trazado_60" data-name="Trazado 60" d="M504.087,155a3.842,3.842,0,1,1-3.842-3.842A3.842,3.842,0,0,1,504.087,155Z" transform="translate(0 10.776)" fill="#fff"/>
    <path id="Trazado_61" data-name="Trazado 61" d="M513.453,155a3.842,3.842,0,1,1-3.842-3.842A3.842,3.842,0,0,1,513.453,155Z" transform="translate(11.173 10.776)" fill="#fff"/>
    <circle id="Elipse_34" data-name="Elipse 34" cx="3.842" cy="3.842" r="3.842" transform="translate(537.481 161.932)" fill="#fff"/>
    <circle id="Elipse_35" data-name="Elipse 35" cx="3.842" cy="3.842" r="3.842" transform="translate(558.02 161.932)" fill="#fff"/>
    <circle id="Elipse_36" data-name="Elipse 36" cx="3.842" cy="3.842" r="3.842" transform="translate(578.559 161.932)" fill="#fff"/>
    <circle id="Elipse_37" data-name="Elipse 37" cx="3.842" cy="3.842" r="3.842" transform="translate(599.098 161.932)" fill="#fff"/>
    <circle id="Elipse_38" data-name="Elipse 38" cx="3.842" cy="3.842" r="3.842" transform="translate(619.637 161.932)" fill="#fff"/>
    <circle id="Elipse_39" data-name="Elipse 39" cx="3.842" cy="3.842" r="3.842" transform="translate(640.176 161.932)" fill="#fff"/>
    <circle id="Elipse_40" data-name="Elipse 40" cx="3.842" cy="3.842" r="3.842" transform="translate(660.715 161.932)" fill="#fff"/>
    <circle id="Elipse_41" data-name="Elipse 41" cx="3.842" cy="3.842" r="3.842" transform="translate(681.254 161.932)" fill="#fff"/>
    <circle id="Elipse_42" data-name="Elipse 42" cx="3.842" cy="3.842" r="3.842" transform="translate(701.793 161.932)" fill="#fff"/>
    <circle id="Elipse_43" data-name="Elipse 43" cx="3.842" cy="3.842" r="3.842" transform="translate(722.332 161.932)" fill="#fff"/>
    <circle id="Elipse_44" data-name="Elipse 44" cx="3.842" cy="3.842" r="3.842" transform="translate(742.871 161.932)" fill="#fff"/>
    <circle id="Elipse_45" data-name="Elipse 45" cx="3.842" cy="3.842" r="3.842" transform="translate(763.41 161.932)" fill="#fff"/>
    <circle id="Elipse_46" data-name="Elipse 46" cx="3.842" cy="3.842" r="3.842" transform="translate(783.949 161.932)" fill="#fff"/>
    <circle id="Elipse_47" data-name="Elipse 47" cx="3.842" cy="3.842" r="3.842" transform="translate(804.488 161.932)" fill="#fff"/>
    <circle id="Elipse_48" data-name="Elipse 48" cx="3.842" cy="3.842" r="3.842" transform="translate(825.027 161.932)" fill="#fff"/>
    <circle id="Elipse_49" data-name="Elipse 49" cx="3.842" cy="3.842" r="3.842" transform="translate(845.566 161.932)" fill="#fff"/>
    <circle id="Elipse_50" data-name="Elipse 50" cx="3.842" cy="3.842" r="3.842" transform="translate(866.104 161.932)" fill="#fff"/>
    <circle id="Elipse_51" data-name="Elipse 51" cx="3.842" cy="3.842" r="3.842" transform="translate(886.643 161.932)" fill="#fff"/>
    <path id="Trazado_62" data-name="Trazado 62" d="M691.4,155a3.842,3.842,0,1,1-3.842-3.842A3.842,3.842,0,0,1,691.4,155Z" transform="translate(223.463 10.776)" fill="#fff"/>
    <path id="Trazado_63" data-name="Trazado 63" d="M700.767,155a3.841,3.841,0,1,1-3.84-3.842A3.84,3.84,0,0,1,700.767,155Z" transform="translate(234.636 10.776)" fill="#fff"/>
    <path id="Trazado_64" data-name="Trazado 64" d="M504.087,164.029a3.842,3.842,0,1,1-3.842-3.84A3.842,3.842,0,0,1,504.087,164.029Z" transform="translate(0 21.553)" fill="#fff"/>
    <path id="Trazado_65" data-name="Trazado 65" d="M513.453,164.029a3.842,3.842,0,1,1-3.842-3.84A3.842,3.842,0,0,1,513.453,164.029Z" transform="translate(11.173 21.553)" fill="#fff"/>
    <path id="Trazado_66" data-name="Trazado 66" d="M522.817,164.029a3.841,3.841,0,1,1-3.84-3.84A3.84,3.84,0,0,1,522.817,164.029Z" transform="translate(22.347 21.553)" fill="#fff"/>
    <path id="Trazado_67" data-name="Trazado 67" d="M532.183,164.029a3.841,3.841,0,1,1-3.842-3.84A3.841,3.841,0,0,1,532.183,164.029Z" transform="translate(33.52 21.553)" fill="#fff"/>
    <path id="Trazado_68" data-name="Trazado 68" d="M541.55,164.029a3.842,3.842,0,1,1-3.842-3.84A3.841,3.841,0,0,1,541.55,164.029Z" transform="translate(44.692 21.553)" fill="#fff"/>
    <path id="Trazado_69" data-name="Trazado 69" d="M550.916,164.029a3.842,3.842,0,1,1-3.842-3.84A3.842,3.842,0,0,1,550.916,164.029Z" transform="translate(55.866 21.553)" fill="#fff"/>
    <path id="Trazado_70" data-name="Trazado 70" d="M560.282,164.029a3.842,3.842,0,1,1-3.842-3.84A3.842,3.842,0,0,1,560.282,164.029Z" transform="translate(67.039 21.553)" fill="#fff"/>
    <path id="Trazado_71" data-name="Trazado 71" d="M569.646,164.029a3.841,3.841,0,1,1-3.84-3.84A3.84,3.84,0,0,1,569.646,164.029Z" transform="translate(78.212 21.553)" fill="#fff"/>
    <path id="Trazado_72" data-name="Trazado 72" d="M579.012,164.029a3.841,3.841,0,1,1-3.842-3.84A3.841,3.841,0,0,1,579.012,164.029Z" transform="translate(89.386 21.553)" fill="#fff"/>
    <path id="Trazado_73" data-name="Trazado 73" d="M588.379,164.029a3.842,3.842,0,1,1-3.842-3.84A3.841,3.841,0,0,1,588.379,164.029Z" transform="translate(100.558 21.553)" fill="#fff"/>
    <path id="Trazado_74" data-name="Trazado 74" d="M597.745,164.029a3.842,3.842,0,1,1-3.842-3.84A3.841,3.841,0,0,1,597.745,164.029Z" transform="translate(111.731 21.553)" fill="#fff"/>
    <path id="Trazado_75" data-name="Trazado 75" d="M607.111,164.029a3.842,3.842,0,1,1-3.842-3.84A3.842,3.842,0,0,1,607.111,164.029Z" transform="translate(122.905 21.553)" fill="#fff"/>
    <path id="Trazado_76" data-name="Trazado 76" d="M616.475,164.029a3.841,3.841,0,1,1-3.84-3.84A3.84,3.84,0,0,1,616.475,164.029Z" transform="translate(134.078 21.553)" fill="#fff"/>
    <path id="Trazado_77" data-name="Trazado 77" d="M625.841,164.029a3.841,3.841,0,1,1-3.842-3.84A3.841,3.841,0,0,1,625.841,164.029Z" transform="translate(145.252 21.553)" fill="#fff"/>
    <path id="Trazado_78" data-name="Trazado 78" d="M635.208,164.029a3.842,3.842,0,1,1-3.842-3.84A3.841,3.841,0,0,1,635.208,164.029Z" transform="translate(156.424 21.553)" fill="#fff"/>
    <path id="Trazado_79" data-name="Trazado 79" d="M644.574,164.029a3.842,3.842,0,1,1-3.842-3.84A3.841,3.841,0,0,1,644.574,164.029Z" transform="translate(167.597 21.553)" fill="#fff"/>
    <path id="Trazado_80" data-name="Trazado 80" d="M653.94,164.029a3.842,3.842,0,1,1-3.842-3.84A3.842,3.842,0,0,1,653.94,164.029Z" transform="translate(178.771 21.553)" fill="#fff"/>
    <path id="Trazado_81" data-name="Trazado 81" d="M663.3,164.029a3.841,3.841,0,1,1-3.84-3.84A3.84,3.84,0,0,1,663.3,164.029Z" transform="translate(189.944 21.553)" fill="#fff"/>
    <path id="Trazado_82" data-name="Trazado 82" d="M672.67,164.029a3.841,3.841,0,1,1-3.842-3.84A3.841,3.841,0,0,1,672.67,164.029Z" transform="translate(201.117 21.553)" fill="#fff"/>
    <path id="Trazado_83" data-name="Trazado 83" d="M682.037,164.029a3.842,3.842,0,1,1-3.842-3.84A3.841,3.841,0,0,1,682.037,164.029Z" transform="translate(212.29 21.553)" fill="#fff"/>
    <path id="Trazado_84" data-name="Trazado 84" d="M691.4,164.029a3.842,3.842,0,1,1-3.842-3.84A3.842,3.842,0,0,1,691.4,164.029Z" transform="translate(223.463 21.553)" fill="#fff"/>
    <path id="Trazado_85" data-name="Trazado 85" d="M700.767,164.029a3.841,3.841,0,1,1-3.84-3.84A3.84,3.84,0,0,1,700.767,164.029Z" transform="translate(234.636 21.553)" fill="#fff"/>
    <path id="Trazado_86" data-name="Trazado 86" d="M504.087,173.062a3.842,3.842,0,1,1-3.842-3.84A3.842,3.842,0,0,1,504.087,173.062Z" transform="translate(0 32.329)" fill="#fff"/>
    <path id="Trazado_87" data-name="Trazado 87" d="M513.453,173.062a3.842,3.842,0,1,1-3.842-3.84A3.842,3.842,0,0,1,513.453,173.062Z" transform="translate(11.173 32.329)" fill="#fff"/>
    <circle id="Elipse_52" data-name="Elipse 52" cx="3.842" cy="3.842" r="3.842" transform="translate(537.481 201.55)" fill="#fff"/>
    <circle id="Elipse_53" data-name="Elipse 53" cx="3.842" cy="3.842" r="3.842" transform="translate(558.02 201.55)" fill="#fff"/>
    <circle id="Elipse_54" data-name="Elipse 54" cx="3.842" cy="3.842" r="3.842" transform="translate(578.559 201.55)" fill="#fff"/>
    <circle id="Elipse_55" data-name="Elipse 55" cx="3.842" cy="3.842" r="3.842" transform="translate(599.098 201.55)" fill="#fff"/>
    <circle id="Elipse_56" data-name="Elipse 56" cx="3.842" cy="3.842" r="3.842" transform="translate(619.637 201.55)" fill="#fff"/>
    <circle id="Elipse_57" data-name="Elipse 57" cx="3.842" cy="3.842" r="3.842" transform="translate(640.176 201.55)" fill="#fff"/>
    <circle id="Elipse_58" data-name="Elipse 58" cx="3.842" cy="3.842" r="3.842" transform="translate(660.715 201.55)" fill="#fff"/>
    <circle id="Elipse_59" data-name="Elipse 59" cx="3.842" cy="3.842" r="3.842" transform="translate(681.254 201.55)" fill="#fff"/>
    <circle id="Elipse_60" data-name="Elipse 60" cx="3.842" cy="3.842" r="3.842" transform="translate(701.793 201.55)" fill="#fff"/>
    <circle id="Elipse_61" data-name="Elipse 61" cx="3.842" cy="3.842" r="3.842" transform="translate(722.332 201.55)" fill="#fff"/>
    <circle id="Elipse_62" data-name="Elipse 62" cx="3.842" cy="3.842" r="3.842" transform="translate(742.871 201.55)" fill="#fff"/>
    <circle id="Elipse_63" data-name="Elipse 63" cx="3.842" cy="3.842" r="3.842" transform="translate(763.41 201.55)" fill="#fff"/>
    <circle id="Elipse_64" data-name="Elipse 64" cx="3.842" cy="3.842" r="3.842" transform="translate(783.949 201.55)" fill="#fff"/>
    <circle id="Elipse_65" data-name="Elipse 65" cx="3.842" cy="3.842" r="3.842" transform="translate(804.488 201.55)" fill="#fff"/>
    <circle id="Elipse_66" data-name="Elipse 66" cx="3.842" cy="3.842" r="3.842" transform="translate(825.027 201.55)" fill="#fff"/>
    <circle id="Elipse_67" data-name="Elipse 67" cx="3.842" cy="3.842" r="3.842" transform="translate(845.566 201.55)" fill="#fff"/>
    <circle id="Elipse_68" data-name="Elipse 68" cx="3.842" cy="3.842" r="3.842" transform="translate(866.104 201.55)" fill="#fff"/>
    <circle id="Elipse_69" data-name="Elipse 69" cx="3.842" cy="3.842" r="3.842" transform="translate(886.643 201.55)" fill="#fff"/>
    <path id="Trazado_88" data-name="Trazado 88" d="M691.4,173.062a3.842,3.842,0,1,1-3.842-3.84A3.842,3.842,0,0,1,691.4,173.062Z" transform="translate(223.463 32.329)" fill="#fff"/>
    <path id="Trazado_89" data-name="Trazado 89" d="M700.767,173.062a3.841,3.841,0,1,1-3.84-3.84A3.841,3.841,0,0,1,700.767,173.062Z" transform="translate(234.636 32.329)" fill="#fff"/>
    <path id="Trazado_90" data-name="Trazado 90" d="M504.087,182.095a3.842,3.842,0,1,1-3.842-3.84A3.842,3.842,0,0,1,504.087,182.095Z" transform="translate(0 43.105)" fill="#fff"/>
    <path id="Trazado_91" data-name="Trazado 91" d="M513.453,182.095a3.842,3.842,0,1,1-3.842-3.84A3.842,3.842,0,0,1,513.453,182.095Z" transform="translate(11.173 43.105)" fill="#fff"/>
    <circle id="Elipse_70" data-name="Elipse 70" cx="3.842" cy="3.842" r="3.842" transform="translate(537.481 221.359)" fill="#fff"/>
    <circle id="Elipse_71" data-name="Elipse 71" cx="3.842" cy="3.842" r="3.842" transform="translate(558.02 221.359)" fill="#fff"/>
    <circle id="Elipse_72" data-name="Elipse 72" cx="3.842" cy="3.842" r="3.842" transform="translate(578.559 221.359)" fill="#fff"/>
    <circle id="Elipse_73" data-name="Elipse 73" cx="3.842" cy="3.842" r="3.842" transform="translate(599.098 221.359)" fill="#fff"/>
    <circle id="Elipse_74" data-name="Elipse 74" cx="3.842" cy="3.842" r="3.842" transform="translate(619.637 221.359)" fill="#fff"/>
    <circle id="Elipse_75" data-name="Elipse 75" cx="3.842" cy="3.842" r="3.842" transform="translate(640.176 221.359)" fill="#fff"/>
    <circle id="Elipse_76" data-name="Elipse 76" cx="3.842" cy="3.842" r="3.842" transform="translate(660.715 221.359)" fill="#fff"/>
    <circle id="Elipse_77" data-name="Elipse 77" cx="3.842" cy="3.842" r="3.842" transform="translate(681.254 221.359)" fill="#fff"/>
    <circle id="Elipse_78" data-name="Elipse 78" cx="3.842" cy="3.842" r="3.842" transform="translate(701.793 221.359)" fill="#fff"/>
    <circle id="Elipse_79" data-name="Elipse 79" cx="3.842" cy="3.842" r="3.842" transform="translate(722.332 221.359)" fill="#fff"/>
    <circle id="Elipse_80" data-name="Elipse 80" cx="3.842" cy="3.842" r="3.842" transform="translate(742.871 221.359)" fill="#fff"/>
    <circle id="Elipse_81" data-name="Elipse 81" cx="3.842" cy="3.842" r="3.842" transform="translate(763.41 221.359)" fill="#fff"/>
    <circle id="Elipse_82" data-name="Elipse 82" cx="3.842" cy="3.842" r="3.842" transform="translate(783.949 221.359)" fill="#fff"/>
    <circle id="Elipse_83" data-name="Elipse 83" cx="3.842" cy="3.842" r="3.842" transform="translate(804.488 221.359)" fill="#fff"/>
    <circle id="Elipse_84" data-name="Elipse 84" cx="3.842" cy="3.842" r="3.842" transform="translate(825.027 221.359)" fill="#fff"/>
    <circle id="Elipse_85" data-name="Elipse 85" cx="3.842" cy="3.842" r="3.842" transform="translate(845.566 221.359)" fill="#fff"/>
    <circle id="Elipse_86" data-name="Elipse 86" cx="3.842" cy="3.842" r="3.842" transform="translate(866.104 221.359)" fill="#fff"/>
    <circle id="Elipse_87" data-name="Elipse 87" cx="3.842" cy="3.842" r="3.842" transform="translate(886.643 221.359)" fill="#fff"/>
    <path id="Trazado_92" data-name="Trazado 92" d="M691.4,182.095a3.842,3.842,0,1,1-3.842-3.84A3.842,3.842,0,0,1,691.4,182.095Z" transform="translate(223.463 43.105)" fill="#fff"/>
    <path id="Trazado_93" data-name="Trazado 93" d="M700.767,182.095a3.841,3.841,0,1,1-3.84-3.84A3.841,3.841,0,0,1,700.767,182.095Z" transform="translate(234.636 43.105)" fill="#fff"/>
    <path id="Trazado_94" data-name="Trazado 94" d="M504.087,191.128a3.842,3.842,0,1,1-3.842-3.84A3.842,3.842,0,0,1,504.087,191.128Z" transform="translate(0 53.881)" fill="#fff"/>
    <path id="Trazado_95" data-name="Trazado 95" d="M513.453,191.128a3.842,3.842,0,1,1-3.842-3.84A3.842,3.842,0,0,1,513.453,191.128Z" transform="translate(11.173 53.881)" fill="#fff"/>
    <path id="Trazado_96" data-name="Trazado 96" d="M522.817,191.128a3.841,3.841,0,1,1-3.84-3.84A3.841,3.841,0,0,1,522.817,191.128Z" transform="translate(22.347 53.881)" fill="#fff"/>
    <path id="Trazado_97" data-name="Trazado 97" d="M532.183,191.128a3.841,3.841,0,1,1-3.842-3.84A3.841,3.841,0,0,1,532.183,191.128Z" transform="translate(33.52 53.881)" fill="#fff"/>
    <path id="Trazado_98" data-name="Trazado 98" d="M541.55,191.128a3.842,3.842,0,1,1-3.842-3.84A3.841,3.841,0,0,1,541.55,191.128Z" transform="translate(44.692 53.881)" fill="#fff"/>
    <path id="Trazado_99" data-name="Trazado 99" d="M550.916,191.128a3.842,3.842,0,1,1-3.842-3.84A3.842,3.842,0,0,1,550.916,191.128Z" transform="translate(55.866 53.881)" fill="#fff"/>
    <path id="Trazado_100" data-name="Trazado 100" d="M560.282,191.128a3.842,3.842,0,1,1-3.842-3.84A3.842,3.842,0,0,1,560.282,191.128Z" transform="translate(67.039 53.881)" fill="#fff"/>
    <path id="Trazado_101" data-name="Trazado 101" d="M569.646,191.128a3.841,3.841,0,1,1-3.84-3.84A3.841,3.841,0,0,1,569.646,191.128Z" transform="translate(78.212 53.881)" fill="#fff"/>
    <path id="Trazado_102" data-name="Trazado 102" d="M579.012,191.128a3.841,3.841,0,1,1-3.842-3.84A3.841,3.841,0,0,1,579.012,191.128Z" transform="translate(89.386 53.881)" fill="#fff"/>
    <path id="Trazado_103" data-name="Trazado 103" d="M588.379,191.128a3.842,3.842,0,1,1-3.842-3.84A3.841,3.841,0,0,1,588.379,191.128Z" transform="translate(100.558 53.881)" fill="#fff"/>
    <path id="Trazado_104" data-name="Trazado 104" d="M597.745,191.128a3.842,3.842,0,1,1-3.842-3.84A3.841,3.841,0,0,1,597.745,191.128Z" transform="translate(111.731 53.881)" fill="#fff"/>
    <path id="Trazado_105" data-name="Trazado 105" d="M607.111,191.128a3.842,3.842,0,1,1-3.842-3.84A3.842,3.842,0,0,1,607.111,191.128Z" transform="translate(122.905 53.881)" fill="#fff"/>
    <path id="Trazado_106" data-name="Trazado 106" d="M616.475,191.128a3.841,3.841,0,1,1-3.84-3.84A3.84,3.84,0,0,1,616.475,191.128Z" transform="translate(134.078 53.881)" fill="#fff"/>
    <path id="Trazado_107" data-name="Trazado 107" d="M625.841,191.128a3.841,3.841,0,1,1-3.842-3.84A3.841,3.841,0,0,1,625.841,191.128Z" transform="translate(145.252 53.881)" fill="#fff"/>
    <path id="Trazado_108" data-name="Trazado 108" d="M635.208,191.128a3.842,3.842,0,1,1-3.842-3.84A3.841,3.841,0,0,1,635.208,191.128Z" transform="translate(156.424 53.881)" fill="#fff"/>
    <path id="Trazado_109" data-name="Trazado 109" d="M644.574,191.128a3.842,3.842,0,1,1-3.842-3.84A3.841,3.841,0,0,1,644.574,191.128Z" transform="translate(167.597 53.881)" fill="#fff"/>
    <path id="Trazado_110" data-name="Trazado 110" d="M653.94,191.128a3.842,3.842,0,1,1-3.842-3.84A3.842,3.842,0,0,1,653.94,191.128Z" transform="translate(178.771 53.881)" fill="#fff"/>
    <path id="Trazado_111" data-name="Trazado 111" d="M663.3,191.128a3.841,3.841,0,1,1-3.84-3.84A3.841,3.841,0,0,1,663.3,191.128Z" transform="translate(189.944 53.881)" fill="#fff"/>
    <path id="Trazado_112" data-name="Trazado 112" d="M672.67,191.128a3.841,3.841,0,1,1-3.842-3.84A3.841,3.841,0,0,1,672.67,191.128Z" transform="translate(201.117 53.881)" fill="#fff"/>
    <path id="Trazado_113" data-name="Trazado 113" d="M682.037,191.128a3.842,3.842,0,1,1-3.842-3.84A3.841,3.841,0,0,1,682.037,191.128Z" transform="translate(212.29 53.881)" fill="#fff"/>
    <path id="Trazado_114" data-name="Trazado 114" d="M691.4,191.128a3.842,3.842,0,1,1-3.842-3.84A3.842,3.842,0,0,1,691.4,191.128Z" transform="translate(223.463 53.881)" fill="#fff"/>
    <path id="Trazado_115" data-name="Trazado 115" d="M700.767,191.128a3.841,3.841,0,1,1-3.84-3.84A3.841,3.841,0,0,1,700.767,191.128Z" transform="translate(234.636 53.881)" fill="#fff"/>
    <path id="Trazado_116" data-name="Trazado 116" d="M504.087,200.163a3.842,3.842,0,1,1-3.842-3.842A3.842,3.842,0,0,1,504.087,200.163Z" transform="translate(0 64.657)" fill="#fff"/>
    <path id="Trazado_117" data-name="Trazado 117" d="M513.453,200.163a3.842,3.842,0,1,1-3.842-3.842A3.842,3.842,0,0,1,513.453,200.163Z" transform="translate(11.173 64.657)" fill="#fff"/>
    <circle id="Elipse_88" data-name="Elipse 88" cx="3.842" cy="3.842" r="3.842" transform="translate(537.481 260.978)" fill="#fff"/>
    <circle id="Elipse_89" data-name="Elipse 89" cx="3.842" cy="3.842" r="3.842" transform="translate(558.02 260.978)" fill="#fff"/>
    <circle id="Elipse_90" data-name="Elipse 90" cx="3.842" cy="3.842" r="3.842" transform="translate(578.559 260.978)" fill="#fff"/>
    <circle id="Elipse_91" data-name="Elipse 91" cx="3.842" cy="3.842" r="3.842" transform="translate(599.098 260.978)" fill="#fff"/>
    <circle id="Elipse_92" data-name="Elipse 92" cx="3.842" cy="3.842" r="3.842" transform="translate(619.637 260.978)" fill="#fff"/>
    <circle id="Elipse_93" data-name="Elipse 93" cx="3.842" cy="3.842" r="3.842" transform="translate(640.176 260.978)" fill="#fff"/>
    <circle id="Elipse_94" data-name="Elipse 94" cx="3.842" cy="3.842" r="3.842" transform="translate(660.715 260.978)" fill="#fff"/>
    <circle id="Elipse_95" data-name="Elipse 95" cx="3.842" cy="3.842" r="3.842" transform="translate(681.254 260.978)" fill="#fff"/>
    <circle id="Elipse_96" data-name="Elipse 96" cx="3.842" cy="3.842" r="3.842" transform="translate(701.793 260.978)" fill="#fff"/>
    <circle id="Elipse_97" data-name="Elipse 97" cx="3.842" cy="3.842" r="3.842" transform="translate(722.332 260.978)" fill="#fff"/>
    <circle id="Elipse_98" data-name="Elipse 98" cx="3.842" cy="3.842" r="3.842" transform="translate(742.871 260.978)" fill="#fff"/>
    <circle id="Elipse_99" data-name="Elipse 99" cx="3.842" cy="3.842" r="3.842" transform="translate(763.41 260.978)" fill="#fff"/>
    <circle id="Elipse_100" data-name="Elipse 100" cx="3.842" cy="3.842" r="3.842" transform="translate(783.949 260.978)" fill="#fff"/>
    <circle id="Elipse_101" data-name="Elipse 101" cx="3.842" cy="3.842" r="3.842" transform="translate(804.488 260.978)" fill="#fff"/>
    <circle id="Elipse_102" data-name="Elipse 102" cx="3.842" cy="3.842" r="3.842" transform="translate(825.027 260.978)" fill="#fff"/>
    <circle id="Elipse_103" data-name="Elipse 103" cx="3.842" cy="3.842" r="3.842" transform="translate(845.566 260.978)" fill="#fff"/>
    <circle id="Elipse_104" data-name="Elipse 104" cx="3.842" cy="3.842" r="3.842" transform="translate(866.104 260.978)" fill="#fff"/>
    <circle id="Elipse_105" data-name="Elipse 105" cx="3.842" cy="3.842" r="3.842" transform="translate(886.643 260.978)" fill="#fff"/>
    <path id="Trazado_118" data-name="Trazado 118" d="M691.4,200.163a3.842,3.842,0,1,1-3.842-3.842A3.842,3.842,0,0,1,691.4,200.163Z" transform="translate(223.463 64.657)" fill="#fff"/>
    <path id="Trazado_119" data-name="Trazado 119" d="M700.767,200.163a3.841,3.841,0,1,1-3.84-3.842A3.84,3.84,0,0,1,700.767,200.163Z" transform="translate(234.636 64.657)" fill="#fff"/>
    <path id="Trazado_120" data-name="Trazado 120" d="M504.087,209.194a3.842,3.842,0,1,1-3.842-3.84A3.842,3.842,0,0,1,504.087,209.194Z" transform="translate(0 75.434)" fill="#fff"/>
    <path id="Trazado_121" data-name="Trazado 121" d="M513.453,209.194a3.842,3.842,0,1,1-3.842-3.84A3.842,3.842,0,0,1,513.453,209.194Z" transform="translate(11.173 75.434)" fill="#fff"/>
    <circle id="Elipse_106" data-name="Elipse 106" cx="3.842" cy="3.842" r="3.842" transform="translate(537.481 280.787)" fill="#fff"/>
    <circle id="Elipse_107" data-name="Elipse 107" cx="3.842" cy="3.842" r="3.842" transform="translate(558.02 280.787)" fill="#fff"/>
    <circle id="Elipse_108" data-name="Elipse 108" cx="3.842" cy="3.842" r="3.842" transform="translate(578.559 280.787)" fill="#fff"/>
    <circle id="Elipse_109" data-name="Elipse 109" cx="3.842" cy="3.842" r="3.842" transform="translate(599.098 280.787)" fill="#fff"/>
    <circle id="Elipse_110" data-name="Elipse 110" cx="3.842" cy="3.842" r="3.842" transform="translate(619.637 280.787)" fill="#fff"/>
    <circle id="Elipse_111" data-name="Elipse 111" cx="3.842" cy="3.842" r="3.842" transform="translate(640.176 280.787)" fill="#fff"/>
    <circle id="Elipse_112" data-name="Elipse 112" cx="3.842" cy="3.842" r="3.842" transform="translate(660.715 280.787)" fill="#fff"/>
    <circle id="Elipse_113" data-name="Elipse 113" cx="3.842" cy="3.842" r="3.842" transform="translate(681.254 280.787)" fill="#fff"/>
    <circle id="Elipse_114" data-name="Elipse 114" cx="3.842" cy="3.842" r="3.842" transform="translate(701.793 280.787)" fill="#fff"/>
    <circle id="Elipse_115" data-name="Elipse 115" cx="3.842" cy="3.842" r="3.842" transform="translate(722.332 280.787)" fill="#fff"/>
    <circle id="Elipse_116" data-name="Elipse 116" cx="3.842" cy="3.842" r="3.842" transform="translate(742.871 280.787)" fill="#fff"/>
    <circle id="Elipse_117" data-name="Elipse 117" cx="3.842" cy="3.842" r="3.842" transform="translate(763.41 280.787)" fill="#fff"/>
    <circle id="Elipse_118" data-name="Elipse 118" cx="3.842" cy="3.842" r="3.842" transform="translate(783.949 280.787)" fill="#fff"/>
    <circle id="Elipse_119" data-name="Elipse 119" cx="3.842" cy="3.842" r="3.842" transform="translate(804.488 280.787)" fill="#fff"/>
    <circle id="Elipse_120" data-name="Elipse 120" cx="3.842" cy="3.842" r="3.842" transform="translate(825.027 280.787)" fill="#fff"/>
    <circle id="Elipse_121" data-name="Elipse 121" cx="3.842" cy="3.842" r="3.842" transform="translate(845.566 280.787)" fill="#fff"/>
    <circle id="Elipse_122" data-name="Elipse 122" cx="3.842" cy="3.842" r="3.842" transform="translate(866.104 280.787)" fill="#fff"/>
    <circle id="Elipse_123" data-name="Elipse 123" cx="3.842" cy="3.842" r="3.842" transform="translate(886.643 280.787)" fill="#fff"/>
    <path id="Trazado_122" data-name="Trazado 122" d="M691.4,209.194a3.842,3.842,0,1,1-3.842-3.84A3.842,3.842,0,0,1,691.4,209.194Z" transform="translate(223.463 75.434)" fill="#fff"/>
    <path id="Trazado_123" data-name="Trazado 123" d="M700.767,209.194a3.841,3.841,0,1,1-3.84-3.84A3.84,3.84,0,0,1,700.767,209.194Z" transform="translate(234.636 75.434)" fill="#fff"/>
    <path id="Trazado_124" data-name="Trazado 124" d="M504.087,218.229a3.842,3.842,0,1,1-3.842-3.842A3.842,3.842,0,0,1,504.087,218.229Z" transform="translate(0 86.21)" fill="#fff"/>
    <path id="Trazado_125" data-name="Trazado 125" d="M513.453,218.229a3.842,3.842,0,1,1-3.842-3.842A3.842,3.842,0,0,1,513.453,218.229Z" transform="translate(11.173 86.21)" fill="#fff"/>
    <path id="Trazado_126" data-name="Trazado 126" d="M522.817,218.229a3.841,3.841,0,1,1-3.84-3.842A3.84,3.84,0,0,1,522.817,218.229Z" transform="translate(22.347 86.21)" fill="#fff"/>
    <path id="Trazado_127" data-name="Trazado 127" d="M532.183,218.229a3.841,3.841,0,1,1-3.842-3.842A3.841,3.841,0,0,1,532.183,218.229Z" transform="translate(33.52 86.21)" fill="#fff"/>
    <path id="Trazado_128" data-name="Trazado 128" d="M541.55,218.229a3.842,3.842,0,1,1-3.842-3.842A3.84,3.84,0,0,1,541.55,218.229Z" transform="translate(44.692 86.21)" fill="#fff"/>
    <path id="Trazado_129" data-name="Trazado 129" d="M550.916,218.229a3.842,3.842,0,1,1-3.842-3.842A3.842,3.842,0,0,1,550.916,218.229Z" transform="translate(55.866 86.21)" fill="#fff"/>
    <path id="Trazado_130" data-name="Trazado 130" d="M560.282,218.229a3.842,3.842,0,1,1-3.842-3.842A3.842,3.842,0,0,1,560.282,218.229Z" transform="translate(67.039 86.21)" fill="#fff"/>
    <path id="Trazado_131" data-name="Trazado 131" d="M569.646,218.229a3.841,3.841,0,1,1-3.84-3.842A3.84,3.84,0,0,1,569.646,218.229Z" transform="translate(78.212 86.21)" fill="#fff"/>
    <path id="Trazado_132" data-name="Trazado 132" d="M579.012,218.229a3.841,3.841,0,1,1-3.842-3.842A3.84,3.84,0,0,1,579.012,218.229Z" transform="translate(89.386 86.21)" fill="#fff"/>
    <path id="Trazado_133" data-name="Trazado 133" d="M588.379,218.229a3.842,3.842,0,1,1-3.842-3.842A3.84,3.84,0,0,1,588.379,218.229Z" transform="translate(100.558 86.21)" fill="#fff"/>
    <path id="Trazado_134" data-name="Trazado 134" d="M597.745,218.229a3.842,3.842,0,1,1-3.842-3.842A3.84,3.84,0,0,1,597.745,218.229Z" transform="translate(111.731 86.21)" fill="#fff"/>
    <path id="Trazado_135" data-name="Trazado 135" d="M607.111,218.229a3.842,3.842,0,1,1-3.842-3.842A3.842,3.842,0,0,1,607.111,218.229Z" transform="translate(122.905 86.21)" fill="#fff"/>
    <path id="Trazado_136" data-name="Trazado 136" d="M616.475,218.229a3.841,3.841,0,1,1-3.84-3.842A3.84,3.84,0,0,1,616.475,218.229Z" transform="translate(134.078 86.21)" fill="#fff"/>
    <path id="Trazado_137" data-name="Trazado 137" d="M625.841,218.229A3.841,3.841,0,1,1,622,214.387,3.84,3.84,0,0,1,625.841,218.229Z" transform="translate(145.252 86.21)" fill="#fff"/>
    <path id="Trazado_138" data-name="Trazado 138" d="M635.208,218.229a3.842,3.842,0,1,1-3.842-3.842A3.84,3.84,0,0,1,635.208,218.229Z" transform="translate(156.424 86.21)" fill="#fff"/>
    <path id="Trazado_139" data-name="Trazado 139" d="M644.574,218.229a3.842,3.842,0,1,1-3.842-3.842A3.84,3.84,0,0,1,644.574,218.229Z" transform="translate(167.597 86.21)" fill="#fff"/>
    <path id="Trazado_140" data-name="Trazado 140" d="M653.94,218.229a3.842,3.842,0,1,1-3.842-3.842A3.842,3.842,0,0,1,653.94,218.229Z" transform="translate(178.771 86.21)" fill="#fff"/>
    <path id="Trazado_141" data-name="Trazado 141" d="M663.3,218.229a3.841,3.841,0,1,1-3.84-3.842A3.84,3.84,0,0,1,663.3,218.229Z" transform="translate(189.944 86.21)" fill="#fff"/>
    <path id="Trazado_142" data-name="Trazado 142" d="M672.67,218.229a3.841,3.841,0,1,1-3.842-3.842A3.841,3.841,0,0,1,672.67,218.229Z" transform="translate(201.117 86.21)" fill="#fff"/>
    <path id="Trazado_143" data-name="Trazado 143" d="M682.037,218.229a3.842,3.842,0,1,1-3.842-3.842A3.84,3.84,0,0,1,682.037,218.229Z" transform="translate(212.29 86.21)" fill="#fff"/>
    <path id="Trazado_144" data-name="Trazado 144" d="M691.4,218.229a3.842,3.842,0,1,1-3.842-3.842A3.842,3.842,0,0,1,691.4,218.229Z" transform="translate(223.463 86.21)" fill="#fff"/>
    <path id="Trazado_145" data-name="Trazado 145" d="M700.767,218.229a3.841,3.841,0,1,1-3.84-3.842A3.84,3.84,0,0,1,700.767,218.229Z" transform="translate(234.636 86.21)" fill="#fff"/>
    <path id="Trazado_146" data-name="Trazado 146" d="M504.087,227.262a3.842,3.842,0,1,1-3.842-3.842A3.842,3.842,0,0,1,504.087,227.262Z" transform="translate(0 96.986)" fill="#fff"/>
    <path id="Trazado_147" data-name="Trazado 147" d="M513.453,227.262a3.842,3.842,0,1,1-3.842-3.842A3.842,3.842,0,0,1,513.453,227.262Z" transform="translate(11.173 96.986)" fill="#fff"/>
    <circle id="Elipse_124" data-name="Elipse 124" cx="3.842" cy="3.842" r="3.842" transform="translate(537.481 320.405)" fill="#fff"/>
    <circle id="Elipse_125" data-name="Elipse 125" cx="3.842" cy="3.842" r="3.842" transform="translate(558.02 320.405)" fill="#fff"/>
    <circle id="Elipse_126" data-name="Elipse 126" cx="3.842" cy="3.842" r="3.842" transform="translate(578.559 320.405)" fill="#fff"/>
    <circle id="Elipse_127" data-name="Elipse 127" cx="3.842" cy="3.842" r="3.842" transform="translate(599.098 320.405)" fill="#fff"/>
    <circle id="Elipse_128" data-name="Elipse 128" cx="3.842" cy="3.842" r="3.842" transform="translate(619.637 320.405)" fill="#fff"/>
    <circle id="Elipse_129" data-name="Elipse 129" cx="3.842" cy="3.842" r="3.842" transform="translate(640.176 320.405)" fill="#fff"/>
    <circle id="Elipse_130" data-name="Elipse 130" cx="3.842" cy="3.842" r="3.842" transform="translate(660.715 320.405)" fill="#fff"/>
    <circle id="Elipse_131" data-name="Elipse 131" cx="3.842" cy="3.842" r="3.842" transform="translate(681.254 320.405)" fill="#fff"/>
    <circle id="Elipse_132" data-name="Elipse 132" cx="3.842" cy="3.842" r="3.842" transform="translate(701.793 320.405)" fill="#fff"/>
    <circle id="Elipse_133" data-name="Elipse 133" cx="3.842" cy="3.842" r="3.842" transform="translate(722.332 320.405)" fill="#fff"/>
    <circle id="Elipse_134" data-name="Elipse 134" cx="3.842" cy="3.842" r="3.842" transform="translate(742.871 320.405)" fill="#fff"/>
    <circle id="Elipse_135" data-name="Elipse 135" cx="3.842" cy="3.842" r="3.842" transform="translate(763.41 320.405)" fill="#fff"/>
    <circle id="Elipse_136" data-name="Elipse 136" cx="3.842" cy="3.842" r="3.842" transform="translate(783.949 320.405)" fill="#fff"/>
    <circle id="Elipse_137" data-name="Elipse 137" cx="3.842" cy="3.842" r="3.842" transform="translate(804.488 320.405)" fill="#fff"/>
    <circle id="Elipse_138" data-name="Elipse 138" cx="3.842" cy="3.842" r="3.842" transform="translate(825.027 320.405)" fill="#fff"/>
    <circle id="Elipse_139" data-name="Elipse 139" cx="3.842" cy="3.842" r="3.842" transform="translate(845.566 320.405)" fill="#fff"/>
    <circle id="Elipse_140" data-name="Elipse 140" cx="3.842" cy="3.842" r="3.842" transform="translate(866.104 320.405)" fill="#fff"/>
    <circle id="Elipse_141" data-name="Elipse 141" cx="3.842" cy="3.842" r="3.842" transform="translate(886.643 320.405)" fill="#fff"/>
    <path id="Trazado_148" data-name="Trazado 148" d="M691.4,227.262a3.842,3.842,0,1,1-3.842-3.842A3.842,3.842,0,0,1,691.4,227.262Z" transform="translate(223.463 96.986)" fill="#fff"/>
    <path id="Trazado_149" data-name="Trazado 149" d="M700.767,227.262a3.841,3.841,0,1,1-3.84-3.842A3.84,3.84,0,0,1,700.767,227.262Z" transform="translate(234.636 96.986)" fill="#fff"/>
    <path id="Trazado_150" data-name="Trazado 150" d="M504.087,236.3a3.842,3.842,0,1,1-3.842-3.842A3.842,3.842,0,0,1,504.087,236.3Z" transform="translate(0 107.762)" fill="#fff"/>
    <path id="Trazado_151" data-name="Trazado 151" d="M513.453,236.3a3.842,3.842,0,1,1-3.842-3.842A3.842,3.842,0,0,1,513.453,236.3Z" transform="translate(11.173 107.762)" fill="#fff"/>
    <circle id="Elipse_142" data-name="Elipse 142" cx="3.842" cy="3.842" r="3.842" transform="translate(537.481 340.214)" fill="#fff"/>
    <circle id="Elipse_143" data-name="Elipse 143" cx="3.842" cy="3.842" r="3.842" transform="translate(558.02 340.214)" fill="#fff"/>
    <circle id="Elipse_144" data-name="Elipse 144" cx="3.842" cy="3.842" r="3.842" transform="translate(578.559 340.214)" fill="#fff"/>
    <circle id="Elipse_145" data-name="Elipse 145" cx="3.842" cy="3.842" r="3.842" transform="translate(599.098 340.214)" fill="#fff"/>
    <circle id="Elipse_146" data-name="Elipse 146" cx="3.842" cy="3.842" r="3.842" transform="translate(619.637 340.214)" fill="#fff"/>
    <circle id="Elipse_147" data-name="Elipse 147" cx="3.842" cy="3.842" r="3.842" transform="translate(640.176 340.214)" fill="#fff"/>
    <circle id="Elipse_148" data-name="Elipse 148" cx="3.842" cy="3.842" r="3.842" transform="translate(660.715 340.214)" fill="#fff"/>
    <circle id="Elipse_149" data-name="Elipse 149" cx="3.842" cy="3.842" r="3.842" transform="translate(681.254 340.214)" fill="#fff"/>
    <circle id="Elipse_150" data-name="Elipse 150" cx="3.842" cy="3.842" r="3.842" transform="translate(701.793 340.214)" fill="#fff"/>
    <circle id="Elipse_151" data-name="Elipse 151" cx="3.842" cy="3.842" r="3.842" transform="translate(722.332 340.214)" fill="#fff"/>
    <circle id="Elipse_152" data-name="Elipse 152" cx="3.842" cy="3.842" r="3.842" transform="translate(742.871 340.214)" fill="#fff"/>
    <circle id="Elipse_153" data-name="Elipse 153" cx="3.842" cy="3.842" r="3.842" transform="translate(763.41 340.214)" fill="#fff"/>
    <circle id="Elipse_154" data-name="Elipse 154" cx="3.842" cy="3.842" r="3.842" transform="translate(783.949 340.214)" fill="#fff"/>
    <circle id="Elipse_155" data-name="Elipse 155" cx="3.842" cy="3.842" r="3.842" transform="translate(804.488 340.214)" fill="#fff"/>
    <circle id="Elipse_156" data-name="Elipse 156" cx="3.842" cy="3.842" r="3.842" transform="translate(825.027 340.214)" fill="#fff"/>
    <circle id="Elipse_157" data-name="Elipse 157" cx="3.842" cy="3.842" r="3.842" transform="translate(845.566 340.214)" fill="#fff"/>
    <circle id="Elipse_158" data-name="Elipse 158" cx="3.842" cy="3.842" r="3.842" transform="translate(866.104 340.214)" fill="#fff"/>
    <circle id="Elipse_159" data-name="Elipse 159" cx="3.842" cy="3.842" r="3.842" transform="translate(886.643 340.214)" fill="#fff"/>
    <path id="Trazado_152" data-name="Trazado 152" d="M691.4,236.3a3.842,3.842,0,1,1-3.842-3.842A3.842,3.842,0,0,1,691.4,236.3Z" transform="translate(223.463 107.762)" fill="#fff"/>
    <path id="Trazado_153" data-name="Trazado 153" d="M700.767,236.3a3.841,3.841,0,1,1-3.84-3.842A3.84,3.84,0,0,1,700.767,236.3Z" transform="translate(234.636 107.762)" fill="#fff"/>
    <path id="Trazado_154" data-name="Trazado 154" d="M504.087,245.328a3.842,3.842,0,1,1-3.842-3.842A3.842,3.842,0,0,1,504.087,245.328Z" transform="translate(0 118.538)" fill="#fff"/>
    <path id="Trazado_155" data-name="Trazado 155" d="M513.453,245.328a3.842,3.842,0,1,1-3.842-3.842A3.842,3.842,0,0,1,513.453,245.328Z" transform="translate(11.173 118.538)" fill="#fff"/>
    <path id="Trazado_156" data-name="Trazado 156" d="M522.817,245.328a3.841,3.841,0,1,1-3.84-3.842A3.84,3.84,0,0,1,522.817,245.328Z" transform="translate(22.347 118.538)" fill="#fff"/>
    <path id="Trazado_157" data-name="Trazado 157" d="M532.183,245.328a3.841,3.841,0,1,1-3.842-3.842A3.841,3.841,0,0,1,532.183,245.328Z" transform="translate(33.52 118.538)" fill="#fff"/>
    <path id="Trazado_158" data-name="Trazado 158" d="M541.55,245.328a3.842,3.842,0,1,1-3.842-3.842A3.84,3.84,0,0,1,541.55,245.328Z" transform="translate(44.692 118.538)" fill="#fff"/>
    <path id="Trazado_159" data-name="Trazado 159" d="M550.916,245.328a3.842,3.842,0,1,1-3.842-3.842A3.842,3.842,0,0,1,550.916,245.328Z" transform="translate(55.866 118.538)" fill="#fff"/>
    <path id="Trazado_160" data-name="Trazado 160" d="M560.282,245.328a3.842,3.842,0,1,1-3.842-3.842A3.842,3.842,0,0,1,560.282,245.328Z" transform="translate(67.039 118.538)" fill="#fff"/>
    <path id="Trazado_161" data-name="Trazado 161" d="M569.646,245.328a3.841,3.841,0,1,1-3.84-3.842A3.84,3.84,0,0,1,569.646,245.328Z" transform="translate(78.212 118.538)" fill="#fff"/>
    <path id="Trazado_162" data-name="Trazado 162" d="M579.012,245.328a3.841,3.841,0,1,1-3.842-3.842A3.841,3.841,0,0,1,579.012,245.328Z" transform="translate(89.386 118.538)" fill="#fff"/>
    <path id="Trazado_163" data-name="Trazado 163" d="M588.379,245.328a3.842,3.842,0,1,1-3.842-3.842A3.84,3.84,0,0,1,588.379,245.328Z" transform="translate(100.558 118.538)" fill="#fff"/>
    <path id="Trazado_164" data-name="Trazado 164" d="M597.745,245.328a3.842,3.842,0,1,1-3.842-3.842A3.841,3.841,0,0,1,597.745,245.328Z" transform="translate(111.731 118.538)" fill="#fff"/>
    <path id="Trazado_165" data-name="Trazado 165" d="M607.111,245.328a3.842,3.842,0,1,1-3.842-3.842A3.842,3.842,0,0,1,607.111,245.328Z" transform="translate(122.905 118.538)" fill="#fff"/>
    <path id="Trazado_166" data-name="Trazado 166" d="M616.475,245.328a3.841,3.841,0,1,1-3.84-3.842A3.84,3.84,0,0,1,616.475,245.328Z" transform="translate(134.078 118.538)" fill="#fff"/>
    <path id="Trazado_167" data-name="Trazado 167" d="M625.841,245.328A3.841,3.841,0,1,1,622,241.486,3.84,3.84,0,0,1,625.841,245.328Z" transform="translate(145.252 118.538)" fill="#fff"/>
    <path id="Trazado_168" data-name="Trazado 168" d="M635.208,245.328a3.842,3.842,0,1,1-3.842-3.842A3.84,3.84,0,0,1,635.208,245.328Z" transform="translate(156.424 118.538)" fill="#fff"/>
    <path id="Trazado_169" data-name="Trazado 169" d="M644.574,245.328a3.842,3.842,0,1,1-3.842-3.842A3.84,3.84,0,0,1,644.574,245.328Z" transform="translate(167.597 118.538)" fill="#fff"/>
    <path id="Trazado_170" data-name="Trazado 170" d="M653.94,245.328a3.842,3.842,0,1,1-3.842-3.842A3.842,3.842,0,0,1,653.94,245.328Z" transform="translate(178.771 118.538)" fill="#fff"/>
    <path id="Trazado_171" data-name="Trazado 171" d="M663.3,245.328a3.841,3.841,0,1,1-3.84-3.842A3.84,3.84,0,0,1,663.3,245.328Z" transform="translate(189.944 118.538)" fill="#fff"/>
    <path id="Trazado_172" data-name="Trazado 172" d="M672.67,245.328a3.841,3.841,0,1,1-3.842-3.842A3.841,3.841,0,0,1,672.67,245.328Z" transform="translate(201.117 118.538)" fill="#fff"/>
    <path id="Trazado_173" data-name="Trazado 173" d="M682.037,245.328a3.842,3.842,0,1,1-3.842-3.842A3.841,3.841,0,0,1,682.037,245.328Z" transform="translate(212.29 118.538)" fill="#fff"/>
    <path id="Trazado_174" data-name="Trazado 174" d="M691.4,245.328a3.842,3.842,0,1,1-3.842-3.842A3.842,3.842,0,0,1,691.4,245.328Z" transform="translate(223.463 118.538)" fill="#fff"/>
    <path id="Trazado_175" data-name="Trazado 175" d="M700.767,245.328a3.841,3.841,0,1,1-3.84-3.842A3.84,3.84,0,0,1,700.767,245.328Z" transform="translate(234.636 118.538)" fill="#fff"/>
    <path id="Trazado_176" data-name="Trazado 176" d="M504.087,254.361a3.842,3.842,0,1,1-3.842-3.842A3.844,3.844,0,0,1,504.087,254.361Z" transform="translate(0 129.314)" fill="#fff"/>
    <path id="Trazado_177" data-name="Trazado 177" d="M513.453,254.361a3.842,3.842,0,1,1-3.842-3.842A3.844,3.844,0,0,1,513.453,254.361Z" transform="translate(11.173 129.314)" fill="#fff"/>
    <circle id="Elipse_160" data-name="Elipse 160" cx="3.842" cy="3.842" r="3.842" transform="translate(537.481 379.833)" fill="#fff"/>
    <circle id="Elipse_161" data-name="Elipse 161" cx="3.842" cy="3.842" r="3.842" transform="translate(558.02 379.833)" fill="#fff"/>
    <circle id="Elipse_162" data-name="Elipse 162" cx="3.842" cy="3.842" r="3.842" transform="translate(578.559 379.833)" fill="#fff"/>
    <circle id="Elipse_163" data-name="Elipse 163" cx="3.842" cy="3.842" r="3.842" transform="translate(599.098 379.833)" fill="#fff"/>
    <circle id="Elipse_164" data-name="Elipse 164" cx="3.842" cy="3.842" r="3.842" transform="translate(619.637 379.833)" fill="#fff"/>
    <circle id="Elipse_165" data-name="Elipse 165" cx="3.842" cy="3.842" r="3.842" transform="translate(640.176 379.833)" fill="#fff"/>
    <circle id="Elipse_166" data-name="Elipse 166" cx="3.842" cy="3.842" r="3.842" transform="translate(660.715 379.833)" fill="#fff"/>
    <circle id="Elipse_167" data-name="Elipse 167" cx="3.842" cy="3.842" r="3.842" transform="translate(681.254 379.833)" fill="#fff"/>
    <circle id="Elipse_168" data-name="Elipse 168" cx="3.842" cy="3.842" r="3.842" transform="translate(701.793 379.833)" fill="#fff"/>
    <circle id="Elipse_169" data-name="Elipse 169" cx="3.842" cy="3.842" r="3.842" transform="translate(722.332 379.833)" fill="#fff"/>
    <circle id="Elipse_170" data-name="Elipse 170" cx="3.842" cy="3.842" r="3.842" transform="translate(742.871 379.833)" fill="#fff"/>
    <circle id="Elipse_171" data-name="Elipse 171" cx="3.842" cy="3.842" r="3.842" transform="translate(763.41 379.833)" fill="#fff"/>
    <circle id="Elipse_172" data-name="Elipse 172" cx="3.842" cy="3.842" r="3.842" transform="translate(783.949 379.833)" fill="#fff"/>
    <circle id="Elipse_173" data-name="Elipse 173" cx="3.842" cy="3.842" r="3.842" transform="translate(804.488 379.833)" fill="#fff"/>
    <circle id="Elipse_174" data-name="Elipse 174" cx="3.842" cy="3.842" r="3.842" transform="translate(825.027 379.833)" fill="#fff"/>
    <circle id="Elipse_175" data-name="Elipse 175" cx="3.842" cy="3.842" r="3.842" transform="translate(845.566 379.833)" fill="#fff"/>
    <circle id="Elipse_176" data-name="Elipse 176" cx="3.842" cy="3.842" r="3.842" transform="translate(866.104 379.833)" fill="#fff"/>
    <circle id="Elipse_177" data-name="Elipse 177" cx="3.842" cy="3.842" r="3.842" transform="translate(886.643 379.833)" fill="#fff"/>
    <path id="Trazado_178" data-name="Trazado 178" d="M691.4,254.361a3.842,3.842,0,1,1-3.842-3.842A3.844,3.844,0,0,1,691.4,254.361Z" transform="translate(223.463 129.314)" fill="#fff"/>
    <path id="Trazado_179" data-name="Trazado 179" d="M700.767,254.361a3.841,3.841,0,1,1-3.84-3.842A3.842,3.842,0,0,1,700.767,254.361Z" transform="translate(234.636 129.314)" fill="#fff"/>
    <path id="Trazado_180" data-name="Trazado 180" d="M504.087,263.394a3.842,3.842,0,1,1-3.842-3.842A3.844,3.844,0,0,1,504.087,263.394Z" transform="translate(0 140.09)" fill="#fff"/>
    <path id="Trazado_181" data-name="Trazado 181" d="M513.453,263.394a3.842,3.842,0,1,1-3.842-3.842A3.844,3.844,0,0,1,513.453,263.394Z" transform="translate(11.173 140.09)" fill="#fff"/>
    <circle id="Elipse_178" data-name="Elipse 178" cx="3.842" cy="3.842" r="3.842" transform="translate(537.481 399.642)" fill="#fff"/>
    <circle id="Elipse_179" data-name="Elipse 179" cx="3.842" cy="3.842" r="3.842" transform="translate(558.02 399.642)" fill="#fff"/>
    <circle id="Elipse_180" data-name="Elipse 180" cx="3.842" cy="3.842" r="3.842" transform="translate(578.559 399.642)" fill="#fff"/>
    <circle id="Elipse_181" data-name="Elipse 181" cx="3.842" cy="3.842" r="3.842" transform="translate(599.098 399.642)" fill="#fff"/>
    <circle id="Elipse_182" data-name="Elipse 182" cx="3.842" cy="3.842" r="3.842" transform="translate(619.637 399.642)" fill="#fff"/>
    <circle id="Elipse_183" data-name="Elipse 183" cx="3.842" cy="3.842" r="3.842" transform="translate(640.176 399.642)" fill="#fff"/>
    <circle id="Elipse_184" data-name="Elipse 184" cx="3.842" cy="3.842" r="3.842" transform="translate(660.715 399.642)" fill="#fff"/>
    <circle id="Elipse_185" data-name="Elipse 185" cx="3.842" cy="3.842" r="3.842" transform="translate(681.254 399.642)" fill="#fff"/>
    <circle id="Elipse_186" data-name="Elipse 186" cx="3.842" cy="3.842" r="3.842" transform="translate(701.793 399.642)" fill="#fff"/>
    <circle id="Elipse_187" data-name="Elipse 187" cx="3.842" cy="3.842" r="3.842" transform="translate(722.332 399.642)" fill="#fff"/>
    <circle id="Elipse_188" data-name="Elipse 188" cx="3.842" cy="3.842" r="3.842" transform="translate(742.871 399.642)" fill="#fff"/>
    <circle id="Elipse_189" data-name="Elipse 189" cx="3.842" cy="3.842" r="3.842" transform="translate(763.41 399.642)" fill="#fff"/>
    <circle id="Elipse_190" data-name="Elipse 190" cx="3.842" cy="3.842" r="3.842" transform="translate(783.949 399.642)" fill="#fff"/>
    <circle id="Elipse_191" data-name="Elipse 191" cx="3.842" cy="3.842" r="3.842" transform="translate(804.488 399.642)" fill="#fff"/>
    <circle id="Elipse_192" data-name="Elipse 192" cx="3.842" cy="3.842" r="3.842" transform="translate(825.027 399.642)" fill="#fff"/>
    <circle id="Elipse_193" data-name="Elipse 193" cx="3.842" cy="3.842" r="3.842" transform="translate(845.566 399.642)" fill="#fff"/>
    <circle id="Elipse_194" data-name="Elipse 194" cx="3.842" cy="3.842" r="3.842" transform="translate(866.104 399.642)" fill="#fff"/>
    <circle id="Elipse_195" data-name="Elipse 195" cx="3.842" cy="3.842" r="3.842" transform="translate(886.643 399.642)" fill="#fff"/>
    <path id="Trazado_182" data-name="Trazado 182" d="M691.4,263.394a3.842,3.842,0,1,1-3.842-3.842A3.844,3.844,0,0,1,691.4,263.394Z" transform="translate(223.463 140.09)" fill="#fff"/>
    <path id="Trazado_183" data-name="Trazado 183" d="M700.767,263.394a3.841,3.841,0,1,1-3.84-3.842A3.842,3.842,0,0,1,700.767,263.394Z" transform="translate(234.636 140.09)" fill="#fff"/>
    <path id="Trazado_184" data-name="Trazado 184" d="M504.087,272.427a3.842,3.842,0,1,1-3.842-3.842A3.844,3.844,0,0,1,504.087,272.427Z" transform="translate(0 150.866)" fill="#fff"/>
    <path id="Trazado_185" data-name="Trazado 185" d="M513.453,272.427a3.842,3.842,0,1,1-3.842-3.842A3.844,3.844,0,0,1,513.453,272.427Z" transform="translate(11.173 150.866)" fill="#fff"/>
    <circle id="Elipse_196" data-name="Elipse 196" cx="3.842" cy="3.842" r="3.842" transform="translate(537.481 419.451)" fill="#fff"/>
    <circle id="Elipse_197" data-name="Elipse 197" cx="3.842" cy="3.842" r="3.842" transform="translate(558.02 419.451)" fill="#fff"/>
    <circle id="Elipse_198" data-name="Elipse 198" cx="3.842" cy="3.842" r="3.842" transform="translate(578.559 419.451)" fill="#fff"/>
    <circle id="Elipse_199" data-name="Elipse 199" cx="3.842" cy="3.842" r="3.842" transform="translate(599.098 419.451)" fill="#fff"/>
    <circle id="Elipse_200" data-name="Elipse 200" cx="3.842" cy="3.842" r="3.842" transform="translate(619.637 419.451)" fill="#fff"/>
    <circle id="Elipse_201" data-name="Elipse 201" cx="3.842" cy="3.842" r="3.842" transform="translate(640.176 419.451)" fill="#fff"/>
    <circle id="Elipse_202" data-name="Elipse 202" cx="3.842" cy="3.842" r="3.842" transform="translate(660.715 419.451)" fill="#fff"/>
    <circle id="Elipse_203" data-name="Elipse 203" cx="3.842" cy="3.842" r="3.842" transform="translate(681.254 419.451)" fill="#fff"/>
    <circle id="Elipse_204" data-name="Elipse 204" cx="3.842" cy="3.842" r="3.842" transform="translate(701.793 419.451)" fill="#fff"/>
    <circle id="Elipse_205" data-name="Elipse 205" cx="3.842" cy="3.842" r="3.842" transform="translate(722.332 419.451)" fill="#fff"/>
    <circle id="Elipse_206" data-name="Elipse 206" cx="3.842" cy="3.842" r="3.842" transform="translate(742.871 419.451)" fill="#fff"/>
    <circle id="Elipse_207" data-name="Elipse 207" cx="3.842" cy="3.842" r="3.842" transform="translate(763.41 419.451)" fill="#fff"/>
    <circle id="Elipse_208" data-name="Elipse 208" cx="3.842" cy="3.842" r="3.842" transform="translate(783.949 419.451)" fill="#fff"/>
    <circle id="Elipse_209" data-name="Elipse 209" cx="3.842" cy="3.842" r="3.842" transform="translate(804.488 419.451)" fill="#fff"/>
    <circle id="Elipse_210" data-name="Elipse 210" cx="3.842" cy="3.842" r="3.842" transform="translate(825.027 419.451)" fill="#fff"/>
    <circle id="Elipse_211" data-name="Elipse 211" cx="3.842" cy="3.842" r="3.842" transform="translate(845.566 419.451)" fill="#fff"/>
    <circle id="Elipse_212" data-name="Elipse 212" cx="3.842" cy="3.842" r="3.842" transform="translate(866.104 419.451)" fill="#fff"/>
    <circle id="Elipse_213" data-name="Elipse 213" cx="3.842" cy="3.842" r="3.842" transform="translate(886.643 419.451)" fill="#fff"/>
    <path id="Trazado_186" data-name="Trazado 186" d="M691.4,272.427a3.842,3.842,0,1,1-3.842-3.842A3.844,3.844,0,0,1,691.4,272.427Z" transform="translate(223.463 150.866)" fill="#fff"/>
    <path id="Trazado_187" data-name="Trazado 187" d="M700.767,272.427a3.841,3.841,0,1,1-3.84-3.842A3.842,3.842,0,0,1,700.767,272.427Z" transform="translate(234.636 150.866)" fill="#fff"/>
    <path id="Trazado_188" data-name="Trazado 188" d="M504.087,281.46a3.842,3.842,0,1,1-3.842-3.842A3.844,3.844,0,0,1,504.087,281.46Z" transform="translate(0 161.643)" fill="#fff"/>
    <path id="Trazado_189" data-name="Trazado 189" d="M513.453,281.46a3.842,3.842,0,1,1-3.842-3.842A3.844,3.844,0,0,1,513.453,281.46Z" transform="translate(11.173 161.643)" fill="#fff"/>
    <circle id="Elipse_214" data-name="Elipse 214" cx="3.842" cy="3.842" r="3.842" transform="translate(537.481 439.26)" fill="#fff"/>
    <circle id="Elipse_215" data-name="Elipse 215" cx="3.842" cy="3.842" r="3.842" transform="translate(558.02 439.26)" fill="#fff"/>
    <circle id="Elipse_216" data-name="Elipse 216" cx="3.842" cy="3.842" r="3.842" transform="translate(578.559 439.26)" fill="#fff"/>
    <circle id="Elipse_217" data-name="Elipse 217" cx="3.842" cy="3.842" r="3.842" transform="translate(599.098 439.26)" fill="#fff"/>
    <circle id="Elipse_218" data-name="Elipse 218" cx="3.842" cy="3.842" r="3.842" transform="translate(619.637 439.26)" fill="#fff"/>
    <circle id="Elipse_219" data-name="Elipse 219" cx="3.842" cy="3.842" r="3.842" transform="translate(640.176 439.26)" fill="#fff"/>
    <circle id="Elipse_220" data-name="Elipse 220" cx="3.842" cy="3.842" r="3.842" transform="translate(660.715 439.26)" fill="#fff"/>
    <circle id="Elipse_221" data-name="Elipse 221" cx="3.842" cy="3.842" r="3.842" transform="translate(681.254 439.26)" fill="#fff"/>
    <circle id="Elipse_222" data-name="Elipse 222" cx="3.842" cy="3.842" r="3.842" transform="translate(701.793 439.26)" fill="#fff"/>
    <circle id="Elipse_223" data-name="Elipse 223" cx="3.842" cy="3.842" r="3.842" transform="translate(722.332 439.26)" fill="#fff"/>
    <circle id="Elipse_224" data-name="Elipse 224" cx="3.842" cy="3.842" r="3.842" transform="translate(742.871 439.26)" fill="#fff"/>
    <circle id="Elipse_225" data-name="Elipse 225" cx="3.842" cy="3.842" r="3.842" transform="translate(763.41 439.26)" fill="#fff"/>
    <circle id="Elipse_226" data-name="Elipse 226" cx="3.842" cy="3.842" r="3.842" transform="translate(783.949 439.26)" fill="#fff"/>
    <circle id="Elipse_227" data-name="Elipse 227" cx="3.842" cy="3.842" r="3.842" transform="translate(804.488 439.26)" fill="#fff"/>
    <circle id="Elipse_228" data-name="Elipse 228" cx="3.842" cy="3.842" r="3.842" transform="translate(825.027 439.26)" fill="#fff"/>
    <circle id="Elipse_229" data-name="Elipse 229" cx="3.842" cy="3.842" r="3.842" transform="translate(845.566 439.26)" fill="#fff"/>
    <circle id="Elipse_230" data-name="Elipse 230" cx="3.842" cy="3.842" r="3.842" transform="translate(866.104 439.26)" fill="#fff"/>
    <circle id="Elipse_231" data-name="Elipse 231" cx="3.842" cy="3.842" r="3.842" transform="translate(886.643 439.26)" fill="#fff"/>
    <path id="Trazado_190" data-name="Trazado 190" d="M691.4,281.46a3.842,3.842,0,1,1-3.842-3.842A3.844,3.844,0,0,1,691.4,281.46Z" transform="translate(223.463 161.643)" fill="#fff"/>
    <path id="Trazado_191" data-name="Trazado 191" d="M700.767,281.46a3.841,3.841,0,1,1-3.84-3.842A3.842,3.842,0,0,1,700.767,281.46Z" transform="translate(234.636 161.643)" fill="#fff"/>
    <path id="Trazado_192" data-name="Trazado 192" d="M504.087,290.493a3.842,3.842,0,1,1-3.842-3.842A3.844,3.844,0,0,1,504.087,290.493Z" transform="translate(0 172.419)" fill="#fff"/>
    <path id="Trazado_193" data-name="Trazado 193" d="M513.453,290.493a3.842,3.842,0,1,1-3.842-3.842A3.844,3.844,0,0,1,513.453,290.493Z" transform="translate(11.173 172.419)" fill="#fff"/>
    <path id="Trazado_194" data-name="Trazado 194" d="M522.817,290.493a3.841,3.841,0,1,1-3.84-3.842A3.842,3.842,0,0,1,522.817,290.493Z" transform="translate(22.347 172.419)" fill="#fff"/>
    <path id="Trazado_195" data-name="Trazado 195" d="M532.183,290.493a3.841,3.841,0,1,1-3.842-3.842A3.842,3.842,0,0,1,532.183,290.493Z" transform="translate(33.52 172.419)" fill="#fff"/>
    <path id="Trazado_196" data-name="Trazado 196" d="M541.55,290.493a3.842,3.842,0,1,1-3.842-3.842A3.842,3.842,0,0,1,541.55,290.493Z" transform="translate(44.692 172.419)" fill="#fff"/>
    <path id="Trazado_197" data-name="Trazado 197" d="M550.916,290.493a3.842,3.842,0,1,1-3.842-3.842A3.844,3.844,0,0,1,550.916,290.493Z" transform="translate(55.866 172.419)" fill="#fff"/>
    <path id="Trazado_198" data-name="Trazado 198" d="M560.282,290.493a3.842,3.842,0,1,1-3.842-3.842A3.844,3.844,0,0,1,560.282,290.493Z" transform="translate(67.039 172.419)" fill="#fff"/>
    <path id="Trazado_199" data-name="Trazado 199" d="M569.646,290.493a3.841,3.841,0,1,1-3.84-3.842A3.842,3.842,0,0,1,569.646,290.493Z" transform="translate(78.212 172.419)" fill="#fff"/>
    <path id="Trazado_200" data-name="Trazado 200" d="M579.012,290.493a3.841,3.841,0,1,1-3.842-3.842A3.842,3.842,0,0,1,579.012,290.493Z" transform="translate(89.386 172.419)" fill="#fff"/>
    <path id="Trazado_201" data-name="Trazado 201" d="M588.379,290.493a3.842,3.842,0,1,1-3.842-3.842A3.842,3.842,0,0,1,588.379,290.493Z" transform="translate(100.558 172.419)" fill="#fff"/>
    <path id="Trazado_202" data-name="Trazado 202" d="M597.745,290.493a3.842,3.842,0,1,1-3.842-3.842A3.842,3.842,0,0,1,597.745,290.493Z" transform="translate(111.731 172.419)" fill="#fff"/>
    <path id="Trazado_203" data-name="Trazado 203" d="M607.111,290.493a3.842,3.842,0,1,1-3.842-3.842A3.844,3.844,0,0,1,607.111,290.493Z" transform="translate(122.905 172.419)" fill="#fff"/>
    <path id="Trazado_204" data-name="Trazado 204" d="M616.475,290.493a3.841,3.841,0,1,1-3.84-3.842A3.842,3.842,0,0,1,616.475,290.493Z" transform="translate(134.078 172.419)" fill="#fff"/>
    <path id="Trazado_205" data-name="Trazado 205" d="M625.841,290.493A3.841,3.841,0,1,1,622,286.651,3.842,3.842,0,0,1,625.841,290.493Z" transform="translate(145.252 172.419)" fill="#fff"/>
    <path id="Trazado_206" data-name="Trazado 206" d="M635.208,290.493a3.842,3.842,0,1,1-3.842-3.842A3.842,3.842,0,0,1,635.208,290.493Z" transform="translate(156.424 172.419)" fill="#fff"/>
    <path id="Trazado_207" data-name="Trazado 207" d="M644.574,290.493a3.842,3.842,0,1,1-3.842-3.842A3.842,3.842,0,0,1,644.574,290.493Z" transform="translate(167.597 172.419)" fill="#fff"/>
    <path id="Trazado_208" data-name="Trazado 208" d="M653.94,290.493a3.842,3.842,0,1,1-3.842-3.842A3.844,3.844,0,0,1,653.94,290.493Z" transform="translate(178.771 172.419)" fill="#fff"/>
    <path id="Trazado_209" data-name="Trazado 209" d="M663.3,290.493a3.841,3.841,0,1,1-3.84-3.842A3.842,3.842,0,0,1,663.3,290.493Z" transform="translate(189.944 172.419)" fill="#fff"/>
    <path id="Trazado_210" data-name="Trazado 210" d="M672.67,290.493a3.841,3.841,0,1,1-3.842-3.842A3.842,3.842,0,0,1,672.67,290.493Z" transform="translate(201.117 172.419)" fill="#fff"/>
    <path id="Trazado_211" data-name="Trazado 211" d="M682.037,290.493a3.842,3.842,0,1,1-3.842-3.842A3.842,3.842,0,0,1,682.037,290.493Z" transform="translate(212.29 172.419)" fill="#fff"/>
    <path id="Trazado_212" data-name="Trazado 212" d="M691.4,290.493a3.842,3.842,0,1,1-3.842-3.842A3.844,3.844,0,0,1,691.4,290.493Z" transform="translate(223.463 172.419)" fill="#fff"/>
    <path id="Trazado_213" data-name="Trazado 213" d="M700.767,290.493a3.841,3.841,0,1,1-3.84-3.842A3.842,3.842,0,0,1,700.767,290.493Z" transform="translate(234.636 172.419)" fill="#fff"/>
  </g>
</svg>
